<?xml version="1.0" encoding="UTF-8" standalone="no"?>
<svg
   xmlns:dc="http://purl.org/dc/elements/1.1/"
   xmlns:cc="http://creativecommons.org/ns#"
   xmlns:rdf="http://www.w3.org/1999/02/22-rdf-syntax-ns#"
   xmlns:svg="http://www.w3.org/2000/svg"
   xmlns="http://www.w3.org/2000/svg"
   id="svg3756"
   version="1.1"
   viewBox="0 0 57.943749 19.050001"
   height="72"
   width="219">
  <defs
     id="defs3750">
    <clipPath
       clipPathUnits="userSpaceOnUse"
       id="clipPath10306">
      <path
         d="m 3122.09,3361.07 c -36.41,52.26 -80.98,98.36 -131.95,136.41 -20.91,-10.22 -41.6,-24.89 -60.42,-43.7 -61.84,-61.84 -79.79,-144.16 -37.07,-186.88 42.72,-42.72 125.58,-25.11 187.41,36.73 17.91,17.89 31.95,37.54 42.03,57.44"
         id="path10304" />
    </clipPath>
    <linearGradient
       x1="0"
       y1="0"
       x2="0.88172001"
       y2="0"
       gradientUnits="userSpaceOnUse"
       gradientTransform="matrix(-150.246,150.246,198.777,198.777,2953.85,3177.41)"
       spreadMethod="pad"
       id="linearGradient10312">
      <stop
         style="stop-opacity:1;stop-color:#f9a70d"
         offset="0"
         id="stop10308" />
      <stop
         style="stop-opacity:1;stop-color:#fcd44b"
         offset="1"
         id="stop10310" />
    </linearGradient>
    <clipPath
       clipPathUnits="userSpaceOnUse"
       id="clipPath10290">
      <path
         d="m 3122.09,3361.09 c 24.75,48.88 24.87,99.41 -5.49,129.78 -29.74,29.7 -78.63,29.99 -126.46,6.6 50.97,-38.04 95.54,-84.14 131.95,-136.38"
         id="path10288" />
    </clipPath>
    <linearGradient
       x1="0.27957001"
       y1="0"
       x2="1"
       y2="0"
       gradientUnits="userSpaceOnUse"
       gradientTransform="matrix(-1e-5,153.081,196.826,1e-5,2970.14,3361.08)"
       spreadMethod="pad"
       id="linearGradient10296">
      <stop
         style="stop-opacity:1;stop-color:#fff200"
         offset="0"
         id="stop10292" />
      <stop
         style="stop-opacity:1;stop-color:#fff87f"
         offset="1"
         id="stop10294" />
    </linearGradient>
    <clipPath
       clipPathUnits="userSpaceOnUse"
       id="clipPath10272">
      <path
         d="m 3268.28,3477.11 c -99.92,99.95 -261.95,99.91 -361.89,0 -99.93,-99.91 -99.93,-261.97 0,-361.89 99.94,-99.94 261.97,-99.94 361.89,0 99.92,99.92 99.92,261.98 0,361.89 z m -8.61,-353.29 c -95.18,-95.17 -249.49,-95.17 -344.67,0 -95.18,95.17 -95.18,249.49 0,344.68 95.18,95.18 249.48,95.18 344.67,0 95.17,-95.19 95.17,-249.51 0,-344.68"
         id="path10270" />
    </clipPath>
    <linearGradient
       x1="0.078817703"
       y1="0"
       x2="0.79803002"
       y2="0"
       gradientUnits="userSpaceOnUse"
       gradientTransform="matrix(361.895,-361.895,-390.198,-390.198,3101.49,3672.21)"
       spreadMethod="pad"
       id="linearGradient10280">
      <stop
         style="stop-opacity:1;stop-color:#c7edfb"
         offset="0"
         id="stop10274" />
      <stop
         style="stop-opacity:1;stop-color:#c7edfb"
         offset="0.2942837"
         id="stop10276" />
      <stop
         style="stop-opacity:1;stop-color:#edf9fe"
         offset="1"
         id="stop10278" />
    </linearGradient>
    <clipPath
       clipPathUnits="userSpaceOnUse"
       id="clipPath10250">
      <path
         d="m 3290.21,3499.03 c -112.05,112.06 -293.71,112.06 -405.75,0 -112.04,-112.03 -112.06,-293.7 0,-405.74 112.04,-112.04 293.72,-112.04 405.75,0 112.06,112.04 112.06,293.71 0,405.74 z m -30.54,-375.21 c -95.18,-95.17 -249.49,-95.17 -344.67,0 -95.18,95.17 -95.18,249.49 0,344.68 95.18,95.18 249.48,95.18 344.67,0 95.17,-95.19 95.17,-249.51 0,-344.68"
         id="path10248" />
    </clipPath>
    <linearGradient
       x1="0.049261101"
       y1="0"
       x2="0.93103403"
       y2="0"
       gradientUnits="userSpaceOnUse"
       gradientTransform="matrix(405.751,-405.751,-434.051,-434.051,3101.49,3716.06)"
       spreadMethod="pad"
       id="linearGradient10262">
      <stop
         style="stop-opacity:1;stop-color:#918f90"
         offset="0"
         id="stop10252" />
      <stop
         style="stop-opacity:1;stop-color:#918f90"
         offset="0.15801445"
         id="stop10254" />
      <stop
         style="stop-opacity:1;stop-color:#c8c7c7"
         offset="0.536946"
         id="stop10256" />
      <stop
         style="stop-opacity:1;stop-color:#c8c7c7"
         offset="0.75756208"
         id="stop10258" />
      <stop
         style="stop-opacity:1;stop-color:#d3d2d2"
         offset="1"
         id="stop10260" />
    </linearGradient>
    <clipPath
       clipPathUnits="userSpaceOnUse"
       id="clipPath10228">
      <path
         d="m 3351.66,3560.48 c -145.98,145.97 -382.66,145.97 -528.63,0 -145.98,-145.97 -145.98,-382.66 0,-528.63 145.97,-145.99 382.65,-145.99 528.63,0 145.98,145.97 145.98,382.66 0,528.63 z m -91.99,-436.66 c -95.18,-95.17 -249.49,-95.17 -344.67,0 -95.18,95.17 -95.18,249.49 0,344.68 95.18,95.18 249.48,95.18 344.67,0 95.17,-95.19 95.17,-249.51 0,-344.68"
         id="path10226" />
    </clipPath>
    <linearGradient
       x1="0.049261101"
       y1="0"
       x2="1"
       y2="0"
       gradientUnits="userSpaceOnUse"
       gradientTransform="matrix(-528.631,528.631,556.927,556.927,3073.19,2753.38)"
       spreadMethod="pad"
       id="linearGradient10240">
      <stop
         style="stop-opacity:1;stop-color:#9c9a9a"
         offset="0"
         id="stop10230" />
      <stop
         style="stop-opacity:1;stop-color:#9c9a9a"
         offset="0.21310201"
         id="stop10232" />
      <stop
         style="stop-opacity:1;stop-color:#dad9d9"
         offset="0.724138"
         id="stop10234" />
      <stop
         style="stop-opacity:1;stop-color:#dad9d9"
         offset="0.85556888"
         id="stop10236" />
      <stop
         style="stop-opacity:1;stop-color:#e4e4e4"
         offset="1"
         id="stop10238" />
    </linearGradient>
    <clipPath
       clipPathUnits="userSpaceOnUse"
       id="clipPath10212">
      <path
         d="m 2935.63,3533.81 c -23.56,-12.54 -45.71,-28.68 -65.57,-48.54 -107.77,-107.78 -107.77,-282.55 0,-390.33 97.13,-97.14 248.55,-106.4 356.44,-28.46 -14.29,199.49 -127.47,371.48 -290.87,467.33"
         id="path10210" />
    </clipPath>
    <linearGradient
       x1="0"
       y1="0"
       x2="1"
       y2="0"
       gradientUnits="userSpaceOnUse"
       gradientTransform="matrix(-2e-5,519.507,504.219,2e-5,2742.29,3014.3)"
       spreadMethod="pad"
       id="linearGradient10218">
      <stop
         style="stop-opacity:1;stop-color:#f68712"
         offset="0"
         id="stop10214" />
      <stop
         style="stop-opacity:1;stop-color:#fabc09"
         offset="1"
         id="stop10216" />
    </linearGradient>
    <clipPath
       clipPathUnits="userSpaceOnUse"
       id="clipPath10196">
      <path
         d="m 3163.63,3547.8 c -98.53,37.56 -214.18,16.86 -293.57,-62.53 -107.77,-107.78 -107.77,-282.55 0,-390.33 107.77,-107.77 282.54,-107.77 390.33,0 47.32,47.33 73.83,107.58 79.61,169.38 -36.91,107.8 -97.73,204.47 -176.37,283.48"
         id="path10194" />
    </clipPath>
    <linearGradient
       x1="0"
       y1="0"
       x2="1"
       y2="0"
       gradientUnits="userSpaceOnUse"
       gradientTransform="matrix(-2e-5,551.831,617.715,3e-5,2742.29,3014.11)"
       spreadMethod="pad"
       id="linearGradient10202">
      <stop
         style="stop-opacity:1;stop-color:#fabc09"
         offset="0"
         id="stop10198" />
      <stop
         style="stop-opacity:1;stop-color:#fff200"
         offset="1"
         id="stop10200" />
    </linearGradient>
    <clipPath
       clipPathUnits="userSpaceOnUse"
       id="clipPath10170">
      <path
         d="m 2524.21,2683.29 c 37.32,171.3 112.2,332.41 215.22,468.27 l -17.71,11.82 c -106.12,-137.46 -183.1,-301.56 -221.13,-476.15 -38.6,-174.59 -35.01,-291.77 -10.37,-469.02 h 23.08 c -24.12,175.05 -27.39,291.78 10.91,465.08"
         id="path10168" />
    </clipPath>
    <linearGradient
       x1="0.30898899"
       y1="0"
       x2="0.91011202"
       y2="0"
       gradientUnits="userSpaceOnUse"
       gradientTransform="matrix(-4e-5,945.166,317.446,1e-5,2441.99,2218.21)"
       spreadMethod="pad"
       id="linearGradient10182">
      <stop
         style="stop-opacity:1;stop-color:#523816"
         offset="0"
         id="stop10172" />
      <stop
         style="stop-opacity:1;stop-color:#8f743c"
         offset="0.5903825"
         id="stop10174" />
      <stop
         style="stop-opacity:1;stop-color:#8f743c"
         offset="0.606742"
         id="stop10176" />
      <stop
         style="stop-opacity:1;stop-color:#8f743c"
         offset="0.67471111"
         id="stop10178" />
      <stop
         style="stop-opacity:1;stop-color:#523816"
         offset="1"
         id="stop10180" />
    </linearGradient>
    <clipPath
       clipPathUnits="userSpaceOnUse"
       id="clipPath10150">
      <path
         d="m 2584.81,2941.45 c -25.75,23.26 -49.73,52.37 -70.17,87.7 -20.03,35.17 -37.83,78.08 -45.58,125.72 l -7.78,-3.66 c 0.13,-1.18 0.33,-2.28 0.47,-3.44 l 0.36,0.18 c 7.76,-47.67 25.57,-90.56 45.6,-125.73 20.43,-35.34 44.42,-64.45 70.16,-87.7 7.11,-6.36 14.38,-12.29 21.76,-17.92 l -3.16,-34.6 c 1.94,-1.82 3.85,-3.73 5.79,-5.47 l 4.31,47.01 c -7.39,5.61 -14.66,11.56 -21.76,17.91"
         id="path10148" />
    </clipPath>
    <linearGradient
       x1="0.30898899"
       y1="0"
       x2="0.67582399"
       y2="0"
       gradientUnits="userSpaceOnUse"
       gradientTransform="matrix(145.293,0,0,-318.34,2461.28,3174.87)"
       spreadMethod="pad"
       id="linearGradient10158">
      <stop
         style="stop-opacity:1;stop-color:#523816"
         offset="0"
         id="stop10152" />
      <stop
         style="stop-opacity:1;stop-color:#8f743c"
         offset="0.97303714"
         id="stop10154" />
      <stop
         style="stop-opacity:1;stop-color:#8f743c"
         offset="1"
         id="stop10156" />
    </linearGradient>
    <clipPath
       clipPathUnits="userSpaceOnUse"
       id="clipPath10126">
      <path
         d="m 2530.6,2719.39 c 92.85,6.91 189.51,36.76 275.75,92.64 43.16,28.24 84.24,64.24 120.37,108.63 33.44,41.63 64.47,92.35 82.63,149.43 l -9.18,4.39 c -18.59,-58.46 -51.96,-109.83 -87.69,-151.33 -36.35,-41.66 -77.28,-75.14 -120.12,-101.17 -85.5,-51.45 -180.58,-77.74 -271.33,-82.12 l 2.22,-82.2 c 3.48,0.56 6.96,1.23 10.44,1.85 l -3.09,59.88"
         id="path10124" />
    </clipPath>
    <linearGradient
       x1="0.30898899"
       y1="0"
       x2="0.91011202"
       y2="0"
       gradientUnits="userSpaceOnUse"
       gradientTransform="matrix(488.315,0,0,-456.816,2521.03,3094.48)"
       spreadMethod="pad"
       id="linearGradient10138">
      <stop
         style="stop-opacity:1;stop-color:#523816"
         offset="0"
         id="stop10128" />
      <stop
         style="stop-opacity:1;stop-color:#8f743c"
         offset="0.5903825"
         id="stop10130" />
      <stop
         style="stop-opacity:1;stop-color:#8f743c"
         offset="0.606742"
         id="stop10132" />
      <stop
         style="stop-opacity:1;stop-color:#8f743c"
         offset="0.67471111"
         id="stop10134" />
      <stop
         style="stop-opacity:1;stop-color:#523816"
         offset="1"
         id="stop10136" />
    </linearGradient>
    <clipPath
       clipPathUnits="userSpaceOnUse"
       id="clipPath10108">
      <path
         d="m 3109.77,2863.3 76.66,-13.98 c 28.74,64.7 44.82,136.25 44.82,211.6 0,288.25 -233.69,521.94 -521.94,521.94 -288.28,0 -521.99,-233.69 -521.99,-521.94 0,-288.28 233.71,-521.99 521.99,-521.99 190.53,0 357.17,102.16 448.29,254.63 l -47.83,69.74"
         id="path10106" />
    </clipPath>
    <linearGradient
       x1="0"
       y1="0"
       x2="1"
       y2="0"
       gradientUnits="userSpaceOnUse"
       gradientTransform="matrix(-5e-5,1043.93,1083.93,5e-5,2167.32,2538.93)"
       spreadMethod="pad"
       id="linearGradient10114">
      <stop
         style="stop-opacity:1;stop-color:#f68712"
         offset="0"
         id="stop10110" />
      <stop
         style="stop-opacity:1;stop-color:#fabc09"
         offset="1"
         id="stop10112" />
    </linearGradient>
    <clipPath
       clipPathUnits="userSpaceOnUse"
       id="clipPath10092">
      <path
         d="m 3109.77,2863.3 211.58,-38.58 c 28.32,73.3 44,152.9 44,236.2 0,362.31 -293.71,656.04 -656.04,656.04 -362.35,0 -656.06,-293.73 -656.06,-656.04 0,-362.33 293.71,-656.08 656.06,-656.08 217.8,0 410.69,106.22 530.03,269.59 l -129.57,188.87"
         id="path10090" />
    </clipPath>
    <linearGradient
       x1="0"
       y1="0"
       x2="1"
       y2="0"
       gradientUnits="userSpaceOnUse"
       gradientTransform="matrix(-6e-5,1312.11,1352.1,6e-5,2033.25,2404.84)"
       spreadMethod="pad"
       id="linearGradient10098">
      <stop
         style="stop-opacity:1;stop-color:#fabc09"
         offset="0"
         id="stop10094" />
      <stop
         style="stop-opacity:1;stop-color:#fff200"
         offset="1"
         id="stop10096" />
    </linearGradient>
    <clipPath
       clipPathUnits="userSpaceOnUse"
       id="clipPath10074">
      <path
         d="m 3259.67,3468.5 c 95.17,-95.19 95.17,-249.51 0,-344.68 -95.18,-95.17 -249.49,-95.17 -344.67,0 -95.18,95.17 -95.18,249.49 0,344.68 95.18,95.18 249.48,95.18 344.67,0"
         id="path10072" />
    </clipPath>
    <linearGradient
       x1="0.078817703"
       y1="0"
       x2="0.79803002"
       y2="0"
       gradientUnits="userSpaceOnUse"
       gradientTransform="matrix(-344.673,344.673,372.957,372.957,3073.19,2937.34)"
       spreadMethod="pad"
       id="linearGradient10082">
      <stop
         style="stop-opacity:1;stop-color:#91dcf8"
         offset="0"
         id="stop10076" />
      <stop
         style="stop-opacity:1;stop-color:#91dcf8"
         offset="0.2942837"
         id="stop10078" />
      <stop
         style="stop-opacity:1;stop-color:#d1f0fc"
         offset="1"
         id="stop10080" />
    </linearGradient>
    <clipPath
       clipPathUnits="userSpaceOnUse"
       id="clipPath10050">
      <path
         d="m 3385.08,2224.12 c 0,-18.55 -344.28,-33.58 -768.94,-33.58 -424.65,0 -768.91,15.03 -768.91,33.58 0,18.52 344.26,33.6 768.91,33.6 424.66,0 768.94,-15.08 768.94,-33.6"
         id="path10048" />
    </clipPath>
    <radialGradient
       fx="0"
       fy="0"
       cx="0"
       cy="0"
       r="1"
       gradientUnits="userSpaceOnUse"
       gradientTransform="matrix(768.708,0,0,-33.6033,2616.15,2224.13)"
       spreadMethod="pad"
       id="radialGradient10064">
      <stop
         style="stop-opacity:1;stop-color:#343131"
         offset="0"
         id="stop10052" />
      <stop
         style="stop-opacity:1;stop-color:#343131"
         offset="0.15840997"
         id="stop10054" />
      <stop
         style="stop-opacity:1;stop-color:#8f8d8d"
         offset="0.458128"
         id="stop10056" />
      <stop
         style="stop-opacity:1;stop-color:#e3e2e2"
         offset="0.70637011"
         id="stop10058" />
      <stop
         style="stop-opacity:1;stop-color:#e3e2e2"
         offset="0.817734"
         id="stop10060" />
      <stop
         style="stop-opacity:1;stop-color:#ffffff"
         offset="1"
         id="stop10062" />
    </radialGradient>
  </defs>
  <metadata
     id="metadata3753">
    <rdf:RDF>
      <cc:Work
         rdf:about="">
        <dc:format>image/svg+xml</dc:format>
        <dc:type
           rdf:resource="http://purl.org/dc/dcmitype/StillImage" />
        <dc:title></dc:title>
      </cc:Work>
    </rdf:RDF>
  </metadata>
  <g
     style="display:none"
     transform="translate(0,-277.94997)"
     id="layer1">
    <rect
       y="277.94995"
       x="0"
       height="19.049999"
       width="19.579166"
       id="rect3808"
       style="fill:#ffffff;fill-opacity:1;stroke-width:0.26594266" />
    <g
       id="flowRoot3782"
       style="font-style:normal;font-variant:normal;font-weight:normal;font-stretch:normal;font-size:96px;line-height:1.25;font-family:'Eras Bold ITC';-inkscape-font-specification:'Eras Bold ITC';letter-spacing:0px;word-spacing:0px;fill:#ffeeaa;fill-opacity:1;stroke:none"
       transform="matrix(0.20428655,0,0,0.25638357,-35.918354,268.49121)"
       aria-label="STaR">
      <path
         id="path4087"
         style="font-style:normal;font-variant:normal;font-weight:normal;font-stretch:normal;font-size:96px;font-family:'Eras Medium ITC';-inkscape-font-specification:'Eras Medium ITC';letter-spacing:-6.33305025px;word-spacing:-3.72594476px;fill:#ffeeaa"
         d="m 277.45508,104.34906 q -0.1875,-4.453127 -0.60938,-7.734377 4.96875,2.34375 8.90625,3.328125 3.98438,0.937502 7.64063,0.937502 3.51562,0 6.51562,-1.171877 3.04688,-1.21875 4.54688,-3.375 1.54687,-2.203125 1.54687,-5.015625 0,-1.640625 -0.51562,-3.046875 -0.51563,-1.453125 -1.6875,-2.90625 -1.125,-1.5 -3.98438,-3.984375 -2.8125,-2.53125 -8.01562,-6.9375 l -3.46875,-2.953125 q -1.96875,-1.6875 -3.5625,-3.328125 -1.59375,-1.6875 -2.67188,-3.1875 -1.07812,-1.546875 -1.6875,-2.765625 -0.5625,-1.265625 -0.89062,-2.765625 -0.32813,-1.546875 -0.32813,-3.140625 0,-4.03125 2.20313,-7.546875 2.20312,-3.515625 6.60937,-5.625 4.45313,-2.109375 11.71875,-2.109375 5.20313,0 12.79688,1.40625 0.0937,3 0.65625,7.359375 -7.17188,-2.53125 -13.03125,-2.53125 -4.03125,0 -6.75,1.359375 -2.71875,1.3125 -4.125,3.421875 -1.40625,2.0625 -1.40625,4.265625 0,1.3125 0.375,2.578125 0.375,1.21875 1.125,2.34375 1.07812,1.640625 2.67187,3.328125 1.59375,1.640625 4.40625,4.03125 0.70313,0.5625 5.34375,4.40625 4.6875,3.84375 6.79688,5.953125 2.15625,2.109375 3.42187,3.9375 1.26563,1.78125 1.96875,3.890625 0.70313,2.0625 0.70313,4.5 0,3.75 -1.64063,6.9375 -1.59375,3.140627 -4.64062,5.156247 -3,2.01563 -6.70313,2.85938 -3.70312,0.84375 -7.73437,0.84375 -3.23438,0 -6.70313,-0.51563 -3.42187,-0.46875 -9.79687,-2.20312 z" />
      <path
         id="path4089"
         style="font-style:normal;font-variant:normal;font-weight:normal;font-stretch:normal;font-size:96px;font-family:'Eras Medium ITC';-inkscape-font-specification:'Eras Medium ITC';letter-spacing:-6.33305025px;word-spacing:-3.72594476px;fill:#ffeeaa"
         d="m 332.52828,106.03656 0.9375,-14.343752 1.26562,-29.71875 0.42188,-13.734375 q -11.48438,0.04687 -20.10938,0.421875 0.28125,-3.75 0.32813,-6.609375 11.90625,0.04687 25.6875,0.04687 l 15,-0.04687 h 7.96875 q -0.32813,4.125 -0.32813,6.5625 -7.26562,-0.421875 -16.07812,-0.421875 h -3.84375 l -0.98438,20.765625 -0.98437,29.25 v 7.828127 l -4.5,-0.0937 q -0.60938,0 -4.78125,0.0937 z" />
      <path
         id="path4091"
         style="font-style:normal;font-variant:normal;font-weight:normal;font-stretch:normal;font-size:96px;font-family:'Eras Medium ITC';-inkscape-font-specification:'Eras Medium ITC';letter-spacing:-6.33305025px;word-spacing:-3.72594476px;fill:#ffeeaa"
         d="m 365.19523,66.099058 q 0.42187,-2.0625 0.89062,-6.09375 5.625,-1.453125 9.75,-1.96875 4.17188,-0.5625 8.10938,-0.5625 4.21875,0 7.875,0.796875 3.70312,0.75 6.14062,2.484375 2.4375,1.734375 3.23438,3.984375 0.79687,2.25 0.79687,4.828125 0,3.234375 -0.51562,10.875 -0.46875,7.59375 -0.75,14.0625 -0.23438,6.468752 -0.23438,11.531252 -2.53125,-0.0937 -4.125,-0.0937 -1.5,0 -4.26562,0.0937 l 0.98437,-12.796877 0.70313,-15.140625 q -1.64063,1.265625 -2.48438,1.78125 -0.79687,0.515625 -1.82812,0.984375 -1.03125,0.421875 -2.29688,0.84375 -1.21875,0.375 -4.82812,1.359375 -3.5625,0.984375 -5.0625,1.5 -3.23438,1.03125 -5.10938,2.0625 -1.875,1.03125 -3.14062,2.25 -1.26563,1.21875 -1.78125,2.4375 -0.60938,1.5 -0.60938,3.140625 0,2.53125 1.5,4.40625 1.5,1.874997 3.75,2.624997 2.29688,0.70313 5.48438,0.70313 1.96875,0 4.125,-0.28125 2.15625,-0.28125 5.76562,-1.45313 -0.65625,1.82813 -1.5,5.625 -3.42187,0.65625 -5.57812,0.79688 -2.15625,0.1875 -4.07813,0.1875 -6.42187,0 -10.03125,-1.5 -3.60937,-1.5 -5.39062,-4.54688 -1.78125,-3.093747 -1.78125,-6.703122 0,-2.109375 0.60937,-3.890625 0.65625,-1.78125 1.73438,-3.234375 1.07812,-1.453125 3.04687,-2.90625 2.01563,-1.453125 4.17188,-2.390625 2.20312,-0.9375 5.10937,-1.828125 2.90625,-0.9375 9.32813,-2.484375 2.0625,-0.46875 3.51562,-0.9375 1.45313,-0.515625 2.57813,-0.984375 1.125,-0.46875 1.96875,-1.078125 0.84375,-0.65625 1.54687,-1.546875 0.70313,-0.9375 1.03125,-1.875 0.32813,-0.9375 0.32813,-1.875 0,-2.296875 -1.5,-3.9375 -1.5,-1.640625 -3.9375,-2.296875 -2.39063,-0.65625 -5.67188,-0.65625 -3.04687,0 -6.28125,0.515625 -3.1875,0.46875 -5.53125,1.171875 -2.29687,0.65625 -5.76562,2.015625 z" />
      <path
         id="path4093"
         style="font-style:normal;font-variant:normal;font-weight:normal;font-stretch:normal;font-size:96px;font-family:'Eras Medium ITC';-inkscape-font-specification:'Eras Medium ITC';letter-spacing:-6.33305025px;word-spacing:-3.72594476px;fill:#ffeeaa"
         d="m 407.79967,106.03656 0.9375,-12.609377 1.07813,-23.296875 0.46875,-19.59375 q 0.0937,-5.953125 0.0937,-8.484375 5.625,0.09375 9.32812,0.09375 3.1875,0 7.03125,-0.09375 3.89063,-0.09375 6.375,-0.09375 4.35938,0 7.92188,0.609375 3.60937,0.609375 6.42187,2.8125 2.85938,2.15625 4.17188,5.0625 1.35937,2.859375 1.35937,6.515625 0,3.515625 -1.07812,6.515625 -1.03125,3 -3.09375,5.4375 -2.01563,2.4375 -4.82813,3.984375 -2.15625,1.171875 -5.39062,1.921875 -2.15625,0.46875 -5.90625,0.890625 l 8.25,13.171875 8.53125,13.078122 q 0.89062,1.35938 2.57812,4.07813 -3.65625,-0.0937 -4.875,-0.0937 -1.3125,0 -5.01562,0.0937 l -3.375,-6.421877 q -1.03125,-1.875 -2.0625,-3.703125 -1.03125,-1.828125 -2.25,-3.9375 L 423.8778,74.677183 q -0.65625,-1.03125 -2.15625,-3.609375 3.60937,0.65625 6.375,0.65625 4.6875,0 8.48437,-1.546875 3.84375,-1.546875 5.90625,-4.78125 2.10938,-3.28125 2.10938,-7.265625 0,-2.15625 -0.65625,-3.984375 -0.65625,-1.875 -2.10938,-3.140625 -1.40625,-1.265625 -2.8125,-1.828125 -1.35937,-0.5625 -3.5625,-0.84375 -2.15625,-0.28125 -4.59375,-0.28125 l -6.65625,0.09375 q -4.3125,0 -5.48437,-0.04687 -1.45313,31.5 -1.78125,57.937497 l -4.59375,-0.0937 q -1.03125,0 -4.54688,0.0937 z" />
    </g>
    <g
       transform="matrix(0.33617681,0,0,0.34127487,-24.595403,190.31382)"
       id="g3798">
      <path
         style="fill:#ffdd55;stroke-width:0.10802505"
         d="m 104.08515,260.52116 5.39845,16.61436 h 17.47424 c 1.69459,0 2.39967,2.16807 1.02926,3.16481 l -14.13865,10.28388 5.39953,16.62376 c 0.5236,1.61195 -1.32114,2.95233 -2.69242,1.95634 l -14.13432,-10.26628 -14.134213,10.27049 c -1.371162,0.99642 -3.216339,-0.34384 -2.692849,-1.9559 l 5.399633,-16.62916 -14.13832,-10.28302 c -1.370514,-0.99685 -0.665326,-3.16481 1.029263,-3.16481 h 17.473809 l 5.398447,-16.61436 c 0.5237,-1.61216 2.80433,-1.61216 3.32814,-1.1e-4 z"
         id="path2" />
      <polygon
         transform="matrix(0.10802505,0,0,0.10802505,74.766826,256.68973)"
         style="fill:#efefef"
         points="255.993,327.764 180.713,382.448 209.481,293.84 134.11,238.977 227.255,238.977 255.998,150.516 284.742,238.977 377.896,238.977 302.516,293.853 331.281,382.437 "
         id="polygon4" />
      <path
         d="m 115.58906,281.14347 h -9.07367 l -2.79936,-8.61511 c -0.18235,-0.56108 -0.7053,-0.941 -1.29511,-0.941 -0.58982,0 -1.11288,0.37992 -1.29512,0.941 l -2.799249,8.61511 h -9.0727 c -0.589817,0 -1.112442,0.37949 -1.294896,0.94025 -0.182563,0.56076 0.01664,1.17531 0.493458,1.5224 l 7.343003,5.34497 -2.802494,8.63206 c -0.182022,0.56109 0.01772,1.17564 0.494971,1.52229 0.238627,0.17317 0.519385,0.25991 0.800249,0.25991 0.280866,0 0.561731,-0.0867 0.80025,-0.25991 l 7.331988,-5.32596 7.33274,5.32489 c 0.47714,0.34654 1.12346,0.34654 1.60061,-3.3e-4 0.47714,-0.34665 0.67688,-0.96121 0.49475,-1.52229 l -2.80206,-8.62926 7.34408,-5.34626 c 0.47672,-0.34709 0.67602,-0.96165 0.49335,-1.5224 -0.18245,-0.56076 -0.70519,-0.94036 -1.29479,-0.94036 z m -8.94436,6.18875 c -0.4765,0.34698 -0.6757,0.961 -0.49368,1.52164 l 1.81374,5.58587 -4.74413,-3.44524 c -0.47726,-0.34665 -1.12346,-0.34633 -1.6005,1.1e-4 l -4.743167,3.44546 1.814173,-5.58781 c 0.181914,-0.56055 -0.01739,-1.17467 -0.493891,-1.52154 l -4.758504,-3.46393 h 5.87732 c 0.589924,0 1.112879,-0.37992 1.295109,-0.941 l 1.80975,-5.5701 1.80996,5.5701 c 0.18234,0.56108 0.70529,0.941 1.29511,0.941 h 5.87872 z"
         id="path8"
         style="fill:#ffcc00;fill-opacity:1;stroke-width:0.10802505" />
      <path
         style="fill:#ffeeaa;stroke-width:0.14245971"
         d="m 86.047756,310.85326 c -1.142291,-0.49902 -1.914258,-1.6157 -1.920076,-2.77746 -0.0021,-0.42878 0.806614,-3.11944 2.578381,-8.578 1.419831,-4.3743 2.549636,-8.03575 2.510676,-8.13654 -0.03896,-0.1008 -2.978354,-2.2988 -6.531991,-4.88445 -3.553635,-2.58564 -6.680816,-4.89294 -6.949289,-5.12732 -1.217319,-1.06276 -1.339747,-2.92766 -0.272029,-4.14373 0.910101,-1.03654 0.353272,-0.97814 10.080625,-1.05727 l 8.756176,-0.0712 2.6406,-8.08928 c 2.822214,-8.64567 2.886894,-8.79725 3.994631,-9.36238 0.73748,-0.37623 1.96073,-0.37989 2.68961,-0.008 1.08291,0.55246 1.334,1.01523 2.49287,4.59441 0.59131,1.82627 1.77333,5.46808 2.62671,8.0929 l 1.5516,4.7724 8.82963,0.0712 8.82963,0.0712 0.58843,0.40787 c 1.49157,1.03387 1.72634,3.24615 0.48347,4.55563 -0.21132,0.22264 -3.38121,2.58655 -7.0442,5.25313 -3.66299,2.66659 -6.65999,4.91253 -6.65999,4.99098 0,0.0785 1.15392,3.69328 2.56427,8.03294 1.93785,5.96278 2.56428,8.06527 2.56428,8.60657 0,2.04292 -2.19449,3.55927 -4.03695,2.78944 -0.25646,-0.10716 -3.52585,-2.41756 -7.26531,-5.13421 -4.16171,-3.02342 -6.86635,-4.89959 -6.97264,-4.8368 -0.0955,0.0564 -3.090494,2.22119 -6.655544,4.81059 -3.565054,2.58941 -6.765234,4.85364 -7.111513,5.03163 -0.71198,0.36597 -1.692685,0.41819 -2.362057,0.12577 z m 8.439388,-7.61695 c 3.977151,-2.88779 7.375876,-5.29626 7.552726,-5.35216 0.19146,-0.0605 0.48718,-0.019 0.73089,0.10257 0.22514,0.11231 3.54221,2.47721 7.37127,5.25533 3.82906,2.77812 7.03629,5.09492 7.12715,5.14843 0.24122,0.14203 0.61831,-0.041 0.61831,-0.30005 0,-0.1229 -1.21803,-3.97992 -2.70673,-8.57114 -1.4887,-4.59122 -2.70673,-8.53352 -2.70673,-8.76065 0,-0.22714 0.10934,-0.5338 0.24298,-0.68147 0.13364,-0.14767 3.47013,-2.61643 7.41443,-5.48613 5.87192,-4.27215 7.16381,-5.27103 7.12931,-5.51234 -0.042,-0.29366 -0.075,-0.29496 -9.26253,-0.36594 -8.98486,-0.0694 -9.22744,-0.0785 -9.4965,-0.35615 -0.15195,-0.15679 -0.72576,-1.66225 -1.27602,-3.3478 -0.54994,-1.68459 -1.80866,-5.54703 -2.79717,-8.5832 -1.6861,-5.17884 -1.81788,-5.52031 -2.13034,-5.52031 -0.30978,0 -0.41809,0.26149 -1.54894,3.73957 -0.66874,2.05676 -1.927199,5.92613 -2.796599,8.59861 -1.077007,3.31065 -1.675601,4.94493 -1.878454,5.12855 -0.284588,0.25761 -0.702032,0.27121 -9.457415,0.30815 -7.927498,0.0334 -9.170558,0.067 -9.24052,0.24931 -0.04446,0.11586 -0.04766,0.29078 -0.0071,0.38872 0.04055,0.0979 3.255669,2.48593 7.144713,5.30663 3.889044,2.8207 7.187414,5.25282 7.32971,5.40471 0.145367,0.15517 0.25872,0.48891 0.25872,0.76173 0,0.26706 -1.225965,4.26155 -2.724364,8.87664 -2.240246,6.89998 -2.692821,8.4291 -2.546834,8.605 0.09765,0.11766 0.233187,0.21392 0.301204,0.21392 0.06802,0 3.377697,-2.36274 7.354845,-5.25053 z"
         id="path3792" />
    </g>
    <flowRoot
       transform="matrix(0.26458333,0,0,0.26458333,0,277.94997)"
       style="font-style:normal;font-weight:normal;font-size:40px;line-height:1.25;font-family:sans-serif;letter-spacing:0px;word-spacing:0px;fill:#000000;fill-opacity:1;stroke:none"
       id="flowRoot3800"
       xml:space="preserve"><flowRegion
         id="flowRegion3802"><rect
           y="-54.531136"
           x="243.90895"
           height="120.06997"
           width="281.59909"
           id="rect3804" /></flowRegion><flowPara
         id="flowPara3806" /></flowRoot>  </g>
  <g
     style="display:inline"
     id="layer2">
    <g
       transform="matrix(0.01144575,0,0,-0.01112406,-20.964043,42.612911)"
       id="g10044">
      <g
         id="g10046"
         clip-path="url(#clipPath10050)">
        <path
           d="m 3385.08,2224.12 c 0,-18.55 -344.28,-33.58 -768.94,-33.58 -424.65,0 -768.91,15.03 -768.91,33.58 0,18.52 344.26,33.6 768.91,33.6 424.66,0 768.94,-15.08 768.94,-33.6"
           style="fill:url(#radialGradient10064);fill-opacity:1;fill-rule:nonzero;stroke:none"
           id="path10066" />
      </g>
    </g>
    <g
       transform="matrix(0.01144575,0,0,-0.01112406,-20.964043,42.612911)"
       id="g10068">
      <g
         id="g10070"
         clip-path="url(#clipPath10074)">
        <path
           d="m 3259.67,3468.5 c 95.17,-95.19 95.17,-249.51 0,-344.68 -95.18,-95.17 -249.49,-95.17 -344.67,0 -95.18,95.17 -95.18,249.49 0,344.68 95.18,95.18 249.48,95.18 344.67,0"
           style="fill:url(#linearGradient10082);fill-opacity:1;fill-rule:nonzero;stroke:none"
           id="path10084" />
      </g>
    </g>
    <g
       transform="matrix(0.01144575,0,0,-0.01112406,-20.964043,42.612911)"
       id="g10086">
      <g
         id="g10088"
         clip-path="url(#clipPath10092)">
        <path
           d="m 3109.77,2863.3 211.58,-38.58 c 28.32,73.3 44,152.9 44,236.2 0,362.31 -293.71,656.04 -656.04,656.04 -362.35,0 -656.06,-293.73 -656.06,-656.04 0,-362.33 293.71,-656.08 656.06,-656.08 217.8,0 410.69,106.22 530.03,269.59 l -129.57,188.87"
           style="fill:url(#linearGradient10098);fill-opacity:1;fill-rule:nonzero;stroke:none"
           id="path10100" />
      </g>
    </g>
    <g
       transform="matrix(0.01144575,0,0,-0.01112406,-20.964043,42.612911)"
       id="g10102">
      <g
         id="g10104"
         clip-path="url(#clipPath10108)">
        <path
           d="m 3109.77,2863.3 76.66,-13.98 c 28.74,64.7 44.82,136.25 44.82,211.6 0,288.25 -233.69,521.94 -521.94,521.94 -288.28,0 -521.99,-233.69 -521.99,-521.94 0,-288.28 233.71,-521.99 521.99,-521.99 190.53,0 357.17,102.16 448.29,254.63 l -47.83,69.74"
           style="fill:url(#linearGradient10114);fill-opacity:1;fill-rule:nonzero;stroke:none"
           id="path10116" />
      </g>
    </g>
    <path
       d="m 13.505875,8.4729558 c -0.193661,0.743643 -0.555118,1.3644756 -0.959839,1.9046602 -0.410561,0.536291 -0.880522,0.982031 -1.381276,1.345011 -1.011002,0.718947 -2.097778,1.145333 -3.2483036,1.326322 l -0.025405,-0.9144 c 1.0387026,-0.04872 2.1269646,-0.341176 3.1055766,-0.913507 0.490336,-0.289559 0.958812,-0.661992 1.374865,-1.12542 0.408955,-0.4616491 0.7909,-1.0330919 1.003679,-1.6834049 l 0.130709,0.060742"
       style="fill:#533816;fill-opacity:1;fill-rule:nonzero;stroke:none;stroke-width:0.01128376"
       id="path10118" />
    <g
       transform="matrix(0.01144575,0,0,-0.01112406,-20.964043,42.612911)"
       id="g10120">
      <g
         id="g10122"
         clip-path="url(#clipPath10126)">
        <path
           d="m 2530.6,2719.39 c 92.85,6.91 189.51,36.76 275.75,92.64 43.16,28.24 84.24,64.24 120.37,108.63 33.44,41.63 64.47,92.35 82.63,149.43 l -9.18,4.39 c -18.59,-58.46 -51.96,-109.83 -87.69,-151.33 -36.35,-41.66 -77.28,-75.14 -120.12,-101.17 -85.5,-51.45 -180.58,-77.74 -271.33,-82.12 l 2.22,-82.2 c 3.48,0.56 6.96,1.23 10.44,1.85 l -3.09,59.88"
           style="fill:url(#linearGradient10138);fill-opacity:1;fill-rule:nonzero;stroke:none"
           id="path10140" />
      </g>
    </g>
    <path
       d="m 7.2962103,7.5179544 c 0.088705,0.5299493 0.292438,1.0072828 0.5216984,1.3985158 0.2339522,0.3930154 0.5084213,0.716834 0.8031483,0.9755797 0.08127,0.07064 0.164475,0.1368271 0.249058,0.1992331 l -0.04933,0.522943 C 8.703236,10.511439 8.587863,10.400755 8.47501,10.282059 8.1786774,9.9640232 7.908903,9.5820232 7.6841073,9.1312775 7.4633178,8.6774138 7.2765239,8.1622604 7.2071628,7.5586694 l 0.089047,-0.040716"
       style="fill:#533816;fill-opacity:1;fill-rule:nonzero;stroke:none;stroke-width:0.01128376"
       id="path10142" />
    <g
       transform="matrix(0.01144575,0,0,-0.01112406,-20.964043,42.612911)"
       id="g10144">
      <g
         id="g10146"
         clip-path="url(#clipPath10150)">
        <path
           d="m 2584.81,2941.45 c -25.75,23.26 -49.73,52.37 -70.17,87.7 -20.03,35.17 -37.83,78.08 -45.58,125.72 l -7.78,-3.66 c 0.13,-1.18 0.33,-2.28 0.47,-3.44 l 0.36,0.18 c 7.76,-47.67 25.57,-90.56 45.6,-125.73 20.43,-35.34 44.42,-64.45 70.16,-87.7 7.11,-6.36 14.38,-12.29 21.76,-17.92 l -3.16,-34.6 c 1.94,-1.82 3.85,-3.73 5.79,-5.47 l 4.31,47.01 c -7.39,5.61 -14.66,11.56 -21.76,17.91"
           style="fill:url(#linearGradient10158);fill-opacity:1;fill-rule:nonzero;stroke:none"
           id="path10160" />
      </g>
    </g>
    <path
       d="M 10.595219,7.6865951 C 8.701519,10.992221 8.854094,14.57072 9.956203,17.937415 H 7.5384016 C 7.2563794,15.965675 7.2152892,14.662158 7.6570935,12.720009 8.0923775,10.777859 8.973471,8.9524016 10.188095,7.4232905 l 0.407124,0.2633046"
       style="fill:#533816;fill-opacity:1;fill-rule:nonzero;stroke:none;stroke-width:0.01128376"
       id="path10162" />
    <g
       transform="matrix(0.01144575,0,0,-0.01112406,-20.964043,42.612911)"
       id="g10164">
      <g
         id="g10166"
         clip-path="url(#clipPath10170)">
        <path
           d="m 2524.21,2683.29 c 37.32,171.3 112.2,332.41 215.22,468.27 l -17.71,11.82 c -106.12,-137.46 -183.1,-301.56 -221.13,-476.15 -38.6,-174.59 -35.01,-291.77 -10.37,-469.02 h 23.08 c -24.12,175.05 -27.39,291.78 10.91,465.08"
           style="fill:url(#linearGradient10182);fill-opacity:1;fill-rule:nonzero;stroke:none"
           id="path10184" />
      </g>
    </g>
    <path
       d="M 18.613429,11.6531 12.531497,5.7419975 c -0.450617,-0.4378418 -0.450617,-1.1473349 0,-1.5855111 v 0 c 0.450507,-0.4376215 1.18086,-0.4376215 1.631249,0 v 0 L 20.244905,10.0677 c 0.450276,0.437732 0.450276,1.147669 -2.57e-4,1.5854 v 0 c -0.45039,0.437843 -1.180745,0.437843 -1.631249,0 v 0"
       style="fill:#444142;fill-opacity:1;fill-rule:nonzero;stroke:none;stroke-width:0.01128376"
       id="path10186" />
    <path
       d="m 12.589414,4.2131066 c -0.45039,0.4377348 -0.45039,1.1475587 8.6e-5,1.5855146 l 4.131573,4.0153377 C 17.050824,9.6286347 17.361579,9.3991456 17.643487,9.1250467 17.925739,8.8508374 18.161864,8.5489309 18.352095,8.2284479 L 14.22089,4.2131066 c -0.45039,-0.4378418 -1.180741,-0.4378418 -1.631476,0"
       style="fill:#231f20;fill-opacity:1;fill-rule:nonzero;stroke:none;stroke-width:0.01128376"
       id="path10188" />
    <g
       transform="matrix(0.01144575,0,0,-0.01112406,-20.964043,42.612911)"
       id="g10190">
      <g
         id="g10192"
         clip-path="url(#clipPath10196)">
        <path
           d="m 3163.63,3547.8 c -98.53,37.56 -214.18,16.86 -293.57,-62.53 -107.77,-107.78 -107.77,-282.55 0,-390.33 107.77,-107.77 282.54,-107.77 390.33,0 47.32,47.33 73.83,107.58 79.61,169.38 -36.91,107.8 -97.73,204.47 -176.37,283.48"
           style="fill:url(#linearGradient10202);fill-opacity:1;fill-rule:nonzero;stroke:none"
           id="path10204" />
      </g>
    </g>
    <g
       transform="matrix(0.01144575,0,0,-0.01112406,-20.964043,42.612911)"
       id="g10206">
      <g
         id="g10208"
         clip-path="url(#clipPath10212)">
        <path
           d="m 2935.63,3533.81 c -23.56,-12.54 -45.71,-28.68 -65.57,-48.54 -107.77,-107.78 -107.77,-282.55 0,-390.33 97.13,-97.14 248.55,-106.4 356.44,-28.46 -14.29,199.49 -127.47,371.48 -290.87,467.33"
           style="fill:url(#linearGradient10218);fill-opacity:1;fill-rule:nonzero;stroke:none"
           id="path10220" />
      </g>
    </g>
    <g
       transform="matrix(0.01144575,0,0,-0.01112406,-20.964043,42.612911)"
       id="g10222">
      <g
         id="g10224"
         clip-path="url(#clipPath10228)">
        <path
           d="m 3351.66,3560.48 c -145.98,145.97 -382.66,145.97 -528.63,0 -145.98,-145.97 -145.98,-382.66 0,-528.63 145.97,-145.99 382.65,-145.99 528.63,0 145.98,145.97 145.98,382.66 0,528.63 z m -91.99,-436.66 c -95.18,-95.17 -249.49,-95.17 -344.67,0 -95.18,95.17 -95.18,249.49 0,344.68 95.18,95.18 249.48,95.18 344.67,0 95.17,-95.19 95.17,-249.51 0,-344.68"
           style="fill:url(#linearGradient10240);fill-opacity:1;fill-rule:nonzero;stroke:none"
           id="path10242" />
      </g>
    </g>
    <g
       transform="matrix(0.01144575,0,0,-0.01112406,-20.964043,42.612911)"
       id="g10244">
      <g
         id="g10246"
         clip-path="url(#clipPath10250)">
        <path
           d="m 3290.21,3499.03 c -112.05,112.06 -293.71,112.06 -405.75,0 -112.04,-112.03 -112.06,-293.7 0,-405.74 112.04,-112.04 293.72,-112.04 405.75,0 112.06,112.04 112.06,293.71 0,405.74 z m -30.54,-375.21 c -95.18,-95.17 -249.49,-95.17 -344.67,0 -95.18,95.17 -95.18,249.49 0,344.68 95.18,95.18 249.48,95.18 344.67,0 95.17,-95.19 95.17,-249.51 0,-344.68"
           style="fill:url(#linearGradient10262);fill-opacity:1;fill-rule:nonzero;stroke:none"
           id="path10264" />
      </g>
    </g>
    <g
       transform="matrix(0.01144575,0,0,-0.01112406,-20.964043,42.612911)"
       id="g10266">
      <g
         id="g10268"
         clip-path="url(#clipPath10272)">
        <path
           d="m 3268.28,3477.11 c -99.92,99.95 -261.95,99.91 -361.89,0 -99.93,-99.91 -99.93,-261.97 0,-361.89 99.94,-99.94 261.97,-99.94 361.89,0 99.92,99.92 99.92,261.98 0,361.89 z m -8.61,-353.29 c -95.18,-95.17 -249.49,-95.17 -344.67,0 -95.18,95.17 -95.18,249.49 0,344.68 95.18,95.18 249.48,95.18 344.67,0 95.17,-95.19 95.17,-249.51 0,-344.68"
           style="fill:url(#linearGradient10280);fill-opacity:1;fill-rule:nonzero;stroke:none"
           id="path10282" />
      </g>
    </g>
    <g
       transform="matrix(0.01144575,0,0,-0.01112406,-20.964043,42.612911)"
       id="g10284">
      <g
         id="g10286"
         clip-path="url(#clipPath10290)">
        <path
           d="m 3122.09,3361.09 c 24.75,48.88 24.87,99.41 -5.49,129.78 -29.74,29.7 -78.63,29.99 -126.46,6.6 50.97,-38.04 95.54,-84.14 131.95,-136.38"
           style="fill:url(#linearGradient10296);fill-opacity:1;fill-rule:nonzero;stroke:none"
           id="path10298" />
      </g>
    </g>
    <g
       transform="matrix(0.01144575,0,0,-0.01112406,-20.964043,42.612911)"
       id="g10300">
      <g
         id="g10302"
         clip-path="url(#clipPath10306)">
        <path
           d="m 3122.09,3361.07 c -36.41,52.26 -80.98,98.36 -131.95,136.41 -20.91,-10.22 -41.6,-24.89 -60.42,-43.7 -61.84,-61.84 -79.79,-144.16 -37.07,-186.88 42.72,-42.72 125.58,-25.11 187.41,36.73 17.91,17.89 31.95,37.54 42.03,57.44"
           style="fill:url(#linearGradient10312);fill-opacity:1;fill-rule:nonzero;stroke:none"
           id="path10314" />
      </g>
    </g>
    <g
       aria-label="STaR"
       transform="matrix(0.19742382,0,0,0.25638357,-32.809627,-9.45876)"
       style="font-style:normal;font-variant:normal;font-weight:normal;font-stretch:normal;font-size:96px;line-height:1.25;font-family:'Eras Bold ITC';-inkscape-font-specification:'Eras Bold ITC';letter-spacing:0px;word-spacing:0px;display:inline;fill:#ffeeaa;fill-opacity:1;stroke:none"
       id="g4104">
      <path
         d="m 277.45508,104.34906 q -0.1875,-4.453127 -0.60938,-7.734377 4.96875,2.34375 8.90625,3.328125 3.98438,0.937502 7.64063,0.937502 3.51562,0 6.51562,-1.171877 3.04688,-1.21875 4.54688,-3.375 1.54687,-2.203125 1.54687,-5.015625 0,-1.640625 -0.51562,-3.046875 -0.51563,-1.453125 -1.6875,-2.90625 -1.125,-1.5 -3.98438,-3.984375 -2.8125,-2.53125 -8.01562,-6.9375 l -3.46875,-2.953125 q -1.96875,-1.6875 -3.5625,-3.328125 -1.59375,-1.6875 -2.67188,-3.1875 -1.07812,-1.546875 -1.6875,-2.765625 -0.5625,-1.265625 -0.89062,-2.765625 -0.32813,-1.546875 -0.32813,-3.140625 0,-4.03125 2.20313,-7.546875 2.20312,-3.515625 6.60937,-5.625 4.45313,-2.109375 11.71875,-2.109375 5.20313,0 12.79688,1.40625 0.0937,3 0.65625,7.359375 -7.17188,-2.53125 -13.03125,-2.53125 -4.03125,0 -6.75,1.359375 -2.71875,1.3125 -4.125,3.421875 -1.40625,2.0625 -1.40625,4.265625 0,1.3125 0.375,2.578125 0.375,1.21875 1.125,2.34375 1.07812,1.640625 2.67187,3.328125 1.59375,1.640625 4.40625,4.03125 0.70313,0.5625 5.34375,4.40625 4.6875,3.84375 6.79688,5.953125 2.15625,2.109375 3.42187,3.9375 1.26563,1.78125 1.96875,3.890625 0.70313,2.0625 0.70313,4.5 0,3.75 -1.64063,6.9375 -1.59375,3.140627 -4.64062,5.156247 -3,2.01563 -6.70313,2.85938 -3.70312,0.84375 -7.73437,0.84375 -3.23438,0 -6.70313,-0.51563 -3.42187,-0.46875 -9.79687,-2.20312 z"
         style="font-style:normal;font-variant:normal;font-weight:normal;font-stretch:normal;font-size:96px;font-family:'Eras Medium ITC';-inkscape-font-specification:'Eras Medium ITC';letter-spacing:-6.33305025px;word-spacing:-3.72594476px;fill:#ffeeaa"
         id="path4096" />
      <path
         d="m 332.52828,106.03656 0.9375,-14.343752 1.26562,-29.71875 0.42188,-13.734375 q -11.48438,0.04687 -20.10938,0.421875 0.28125,-3.75 0.32813,-6.609375 11.90625,0.04687 25.6875,0.04687 l 15,-0.04687 h 7.96875 q -0.32813,4.125 -0.32813,6.5625 -7.26562,-0.421875 -16.07812,-0.421875 h -3.84375 l -0.98438,20.765625 -0.98437,29.25 v 7.828127 l -4.5,-0.0937 q -0.60938,0 -4.78125,0.0937 z"
         style="font-style:normal;font-variant:normal;font-weight:normal;font-stretch:normal;font-size:96px;font-family:'Eras Medium ITC';-inkscape-font-specification:'Eras Medium ITC';letter-spacing:-6.33305025px;word-spacing:-3.72594476px;fill:#ffeeaa"
         id="path4098" />
      <path
         d="m 365.19523,66.099058 q 0.42187,-2.0625 0.89062,-6.09375 5.625,-1.453125 9.75,-1.96875 4.17188,-0.5625 8.10938,-0.5625 4.21875,0 7.875,0.796875 3.70312,0.75 6.14062,2.484375 2.4375,1.734375 3.23438,3.984375 0.79687,2.25 0.79687,4.828125 0,3.234375 -0.51562,10.875 -0.46875,7.59375 -0.75,14.0625 -0.23438,6.468752 -0.23438,11.531252 -2.53125,-0.0937 -4.125,-0.0937 -1.5,0 -4.26562,0.0937 l 0.98437,-12.796877 0.70313,-15.140625 q -1.64063,1.265625 -2.48438,1.78125 -0.79687,0.515625 -1.82812,0.984375 -1.03125,0.421875 -2.29688,0.84375 -1.21875,0.375 -4.82812,1.359375 -3.5625,0.984375 -5.0625,1.5 -3.23438,1.03125 -5.10938,2.0625 -1.875,1.03125 -3.14062,2.25 -1.26563,1.21875 -1.78125,2.4375 -0.60938,1.5 -0.60938,3.140625 0,2.53125 1.5,4.40625 1.5,1.874997 3.75,2.624997 2.29688,0.70313 5.48438,0.70313 1.96875,0 4.125,-0.28125 2.15625,-0.28125 5.76562,-1.45313 -0.65625,1.82813 -1.5,5.625 -3.42187,0.65625 -5.57812,0.79688 -2.15625,0.1875 -4.07813,0.1875 -6.42187,0 -10.03125,-1.5 -3.60937,-1.5 -5.39062,-4.54688 -1.78125,-3.093747 -1.78125,-6.703122 0,-2.109375 0.60937,-3.890625 0.65625,-1.78125 1.73438,-3.234375 1.07812,-1.453125 3.04687,-2.90625 2.01563,-1.453125 4.17188,-2.390625 2.20312,-0.9375 5.10937,-1.828125 2.90625,-0.9375 9.32813,-2.484375 2.0625,-0.46875 3.51562,-0.9375 1.45313,-0.515625 2.57813,-0.984375 1.125,-0.46875 1.96875,-1.078125 0.84375,-0.65625 1.54687,-1.546875 0.70313,-0.9375 1.03125,-1.875 0.32813,-0.9375 0.32813,-1.875 0,-2.296875 -1.5,-3.9375 -1.5,-1.640625 -3.9375,-2.296875 -2.39063,-0.65625 -5.67188,-0.65625 -3.04687,0 -6.28125,0.515625 -3.1875,0.46875 -5.53125,1.171875 -2.29687,0.65625 -5.76562,2.015625 z"
         style="font-style:normal;font-variant:normal;font-weight:normal;font-stretch:normal;font-size:96px;font-family:'Eras Medium ITC';-inkscape-font-specification:'Eras Medium ITC';letter-spacing:-6.33305025px;word-spacing:-3.72594476px;fill:#ffeeaa"
         id="path4100" />
      <path
         d="m 407.79967,106.03656 0.9375,-12.609377 1.07813,-23.296875 0.46875,-19.59375 q 0.0937,-5.953125 0.0937,-8.484375 5.625,0.09375 9.32812,0.09375 3.1875,0 7.03125,-0.09375 3.89063,-0.09375 6.375,-0.09375 4.35938,0 7.92188,0.609375 3.60937,0.609375 6.42187,2.8125 2.85938,2.15625 4.17188,5.0625 1.35937,2.859375 1.35937,6.515625 0,3.515625 -1.07812,6.515625 -1.03125,3 -3.09375,5.4375 -2.01563,2.4375 -4.82813,3.984375 -2.15625,1.171875 -5.39062,1.921875 -2.15625,0.46875 -5.90625,0.890625 l 8.25,13.171875 8.53125,13.078122 q 0.89062,1.35938 2.57812,4.07813 -3.65625,-0.0937 -4.875,-0.0937 -1.3125,0 -5.01562,0.0937 l -3.375,-6.421877 q -1.03125,-1.875 -2.0625,-3.703125 -1.03125,-1.828125 -2.25,-3.9375 L 423.8778,74.677183 q -0.65625,-1.03125 -2.15625,-3.609375 3.60937,0.65625 6.375,0.65625 4.6875,0 8.48437,-1.546875 3.84375,-1.546875 5.90625,-4.78125 2.10938,-3.28125 2.10938,-7.265625 0,-2.15625 -0.65625,-3.984375 -0.65625,-1.875 -2.10938,-3.140625 -1.40625,-1.265625 -2.8125,-1.828125 -1.35937,-0.5625 -3.5625,-0.84375 -2.15625,-0.28125 -4.59375,-0.28125 l -6.65625,0.09375 q -4.3125,0 -5.48437,-0.04687 -1.45313,31.5 -1.78125,57.937497 l -4.59375,-0.0937 q -1.03125,0 -4.54688,0.0937 z"
         style="font-style:normal;font-variant:normal;font-weight:normal;font-stretch:normal;font-size:96px;font-family:'Eras Medium ITC';-inkscape-font-specification:'Eras Medium ITC';letter-spacing:-6.33305025px;word-spacing:-3.72594476px;fill:#ffeeaa"
         id="path4102" />
    </g>
  </g>
  <g
     id="layer3">
    <g
       id="g4119"
       style="display:inline;font-style:normal;font-variant:normal;font-weight:normal;font-stretch:normal;font-size:96px;line-height:1.25;font-family:'Eras Bold ITC';-inkscape-font-specification:'Eras Bold ITC';letter-spacing:0px;word-spacing:0px;fill:#000000;fill-opacity:1;stroke:none"
       transform="matrix(0.19742382,0,0,0.25638357,-32.809627,-9.45876)"
       aria-label="STaR">
      <path
         id="path4111"
         style="font-style:normal;font-variant:normal;font-weight:normal;font-stretch:normal;font-size:96px;font-family:'Eras Medium ITC';-inkscape-font-specification:'Eras Medium ITC';letter-spacing:-6.33305025px;word-spacing:-3.72594476px;fill:#000000"
         d="m 277.45508,104.34906 q -0.1875,-4.453127 -0.60938,-7.734377 4.96875,2.34375 8.90625,3.328125 3.98438,0.937502 7.64063,0.937502 3.51562,0 6.51562,-1.171877 3.04688,-1.21875 4.54688,-3.375 1.54687,-2.203125 1.54687,-5.015625 0,-1.640625 -0.51562,-3.046875 -0.51563,-1.453125 -1.6875,-2.90625 -1.125,-1.5 -3.98438,-3.984375 -2.8125,-2.53125 -8.01562,-6.9375 l -3.46875,-2.953125 q -1.96875,-1.6875 -3.5625,-3.328125 -1.59375,-1.6875 -2.67188,-3.1875 -1.07812,-1.546875 -1.6875,-2.765625 -0.5625,-1.265625 -0.89062,-2.765625 -0.32813,-1.546875 -0.32813,-3.140625 0,-4.03125 2.20313,-7.546875 2.20312,-3.515625 6.60937,-5.625 4.45313,-2.109375 11.71875,-2.109375 5.20313,0 12.79688,1.40625 0.0937,3 0.65625,7.359375 -7.17188,-2.53125 -13.03125,-2.53125 -4.03125,0 -6.75,1.359375 -2.71875,1.3125 -4.125,3.421875 -1.40625,2.0625 -1.40625,4.265625 0,1.3125 0.375,2.578125 0.375,1.21875 1.125,2.34375 1.07812,1.640625 2.67187,3.328125 1.59375,1.640625 4.40625,4.03125 0.70313,0.5625 5.34375,4.40625 4.6875,3.84375 6.79688,5.953125 2.15625,2.109375 3.42187,3.9375 1.26563,1.78125 1.96875,3.890625 0.70313,2.0625 0.70313,4.5 0,3.75 -1.64063,6.9375 -1.59375,3.140627 -4.64062,5.156247 -3,2.01563 -6.70313,2.85938 -3.70312,0.84375 -7.73437,0.84375 -3.23438,0 -6.70313,-0.51563 -3.42187,-0.46875 -9.79687,-2.20312 z" />
      <path
         id="path4113"
         style="font-style:normal;font-variant:normal;font-weight:normal;font-stretch:normal;font-size:96px;font-family:'Eras Medium ITC';-inkscape-font-specification:'Eras Medium ITC';letter-spacing:-6.33305025px;word-spacing:-3.72594476px;fill:#000000"
         d="m 332.52828,106.03656 0.9375,-14.343752 1.26562,-29.71875 0.42188,-13.734375 q -11.48438,0.04687 -20.10938,0.421875 0.28125,-3.75 0.32813,-6.609375 11.90625,0.04687 25.6875,0.04687 l 15,-0.04687 h 7.96875 q -0.32813,4.125 -0.32813,6.5625 -7.26562,-0.421875 -16.07812,-0.421875 h -3.84375 l -0.98438,20.765625 -0.98437,29.25 v 7.828127 l -4.5,-0.0937 q -0.60938,0 -4.78125,0.0937 z" />
      <path
         id="path4115"
         style="font-style:normal;font-variant:normal;font-weight:normal;font-stretch:normal;font-size:96px;font-family:'Eras Medium ITC';-inkscape-font-specification:'Eras Medium ITC';letter-spacing:-6.33305025px;word-spacing:-3.72594476px;fill:#000000"
         d="m 365.19523,66.099058 q 0.42187,-2.0625 0.89062,-6.09375 5.625,-1.453125 9.75,-1.96875 4.17188,-0.5625 8.10938,-0.5625 4.21875,0 7.875,0.796875 3.70312,0.75 6.14062,2.484375 2.4375,1.734375 3.23438,3.984375 0.79687,2.25 0.79687,4.828125 0,3.234375 -0.51562,10.875 -0.46875,7.59375 -0.75,14.0625 -0.23438,6.468752 -0.23438,11.531252 -2.53125,-0.0937 -4.125,-0.0937 -1.5,0 -4.26562,0.0937 l 0.98437,-12.796877 0.70313,-15.140625 q -1.64063,1.265625 -2.48438,1.78125 -0.79687,0.515625 -1.82812,0.984375 -1.03125,0.421875 -2.29688,0.84375 -1.21875,0.375 -4.82812,1.359375 -3.5625,0.984375 -5.0625,1.5 -3.23438,1.03125 -5.10938,2.0625 -1.875,1.03125 -3.14062,2.25 -1.26563,1.21875 -1.78125,2.4375 -0.60938,1.5 -0.60938,3.140625 0,2.53125 1.5,4.40625 1.5,1.874997 3.75,2.624997 2.29688,0.70313 5.48438,0.70313 1.96875,0 4.125,-0.28125 2.15625,-0.28125 5.76562,-1.45313 -0.65625,1.82813 -1.5,5.625 -3.42187,0.65625 -5.57812,0.79688 -2.15625,0.1875 -4.07813,0.1875 -6.42187,0 -10.03125,-1.5 -3.60937,-1.5 -5.39062,-4.54688 -1.78125,-3.093747 -1.78125,-6.703122 0,-2.109375 0.60937,-3.890625 0.65625,-1.78125 1.73438,-3.234375 1.07812,-1.453125 3.04687,-2.90625 2.01563,-1.453125 4.17188,-2.390625 2.20312,-0.9375 5.10937,-1.828125 2.90625,-0.9375 9.32813,-2.484375 2.0625,-0.46875 3.51562,-0.9375 1.45313,-0.515625 2.57813,-0.984375 1.125,-0.46875 1.96875,-1.078125 0.84375,-0.65625 1.54687,-1.546875 0.70313,-0.9375 1.03125,-1.875 0.32813,-0.9375 0.32813,-1.875 0,-2.296875 -1.5,-3.9375 -1.5,-1.640625 -3.9375,-2.296875 -2.39063,-0.65625 -5.67188,-0.65625 -3.04687,0 -6.28125,0.515625 -3.1875,0.46875 -5.53125,1.171875 -2.29687,0.65625 -5.76562,2.015625 z" />
      <path
         id="path4117"
         style="font-style:normal;font-variant:normal;font-weight:normal;font-stretch:normal;font-size:96px;font-family:'Eras Medium ITC';-inkscape-font-specification:'Eras Medium ITC';letter-spacing:-6.33305025px;word-spacing:-3.72594476px;fill:#000000"
         d="m 407.79967,106.03656 0.9375,-12.609377 1.07813,-23.296875 0.46875,-19.59375 q 0.0937,-5.953125 0.0937,-8.484375 5.625,0.09375 9.32812,0.09375 3.1875,0 7.03125,-0.09375 3.89063,-0.09375 6.375,-0.09375 4.35938,0 7.92188,0.609375 3.60937,0.609375 6.42187,2.8125 2.85938,2.15625 4.17188,5.0625 1.35937,2.859375 1.35937,6.515625 0,3.515625 -1.07812,6.515625 -1.03125,3 -3.09375,5.4375 -2.01563,2.4375 -4.82813,3.984375 -2.15625,1.171875 -5.39062,1.921875 -2.15625,0.46875 -5.90625,0.890625 l 8.25,13.171875 8.53125,13.078122 q 0.89062,1.35938 2.57812,4.07813 -3.65625,-0.0937 -4.875,-0.0937 -1.3125,0 -5.01562,0.0937 l -3.375,-6.421877 q -1.03125,-1.875 -2.0625,-3.703125 -1.03125,-1.828125 -2.25,-3.9375 L 423.8778,74.677183 q -0.65625,-1.03125 -2.15625,-3.609375 3.60937,0.65625 6.375,0.65625 4.6875,0 8.48437,-1.546875 3.84375,-1.546875 5.90625,-4.78125 2.10938,-3.28125 2.10938,-7.265625 0,-2.15625 -0.65625,-3.984375 -0.65625,-1.875 -2.10938,-3.140625 -1.40625,-1.265625 -2.8125,-1.828125 -1.35937,-0.5625 -3.5625,-0.84375 -2.15625,-0.28125 -4.59375,-0.28125 l -6.65625,0.09375 q -4.3125,0 -5.48437,-0.04687 -1.45313,31.5 -1.78125,57.937497 l -4.59375,-0.0937 q -1.03125,0 -4.54688,0.0937 z" />
    </g>
  </g>
</svg>
