<?xml version="1.0" encoding="UTF-8" standalone="no"?>
<svg
   xmlns:dc="http://purl.org/dc/elements/1.1/"
   xmlns:cc="http://creativecommons.org/ns#"
   xmlns:rdf="http://www.w3.org/1999/02/22-rdf-syntax-ns#"
   xmlns:svg="http://www.w3.org/2000/svg"
   xmlns="http://www.w3.org/2000/svg"
   id="ckan-logo"
   viewBox="0 0 1757.17 578.39502"
   width="100%"
   version="1.1"
   height="100%">
  <metadata
     id="metadata27">
    <rdf:RDF>
      <cc:Work
         rdf:about="">
        <dc:format>image/svg+xml</dc:format>
        <dc:type
           rdf:resource="http://purl.org/dc/dcmitype/StillImage" />
        <dc:title></dc:title>
      </cc:Work>
    </rdf:RDF>
  </metadata>
  <defs
     id="defs25">
    <clipPath
       id="clipPath10050"
       clipPathUnits="userSpaceOnUse">
      <path
         id="path10048"
         d="m 3385.08,2224.12 c 0,-18.55 -344.28,-33.58 -768.94,-33.58 -424.65,0 -768.91,15.03 -768.91,33.58 0,18.52 344.26,33.6 768.91,33.6 424.66,0 768.94,-15.08 768.94,-33.6" />
    </clipPath>
    <radialGradient
       id="radialGradient10064"
       spreadMethod="pad"
       gradientTransform="matrix(768.708,0,0,-33.6033,2616.15,2224.13)"
       gradientUnits="userSpaceOnUse"
       r="1"
       cy="0"
       cx="0"
       fy="0"
       fx="0">
      <stop
         id="stop10052"
         offset="0"
         style="stop-opacity:1;stop-color:#343131" />
      <stop
         id="stop10054"
         offset="0.15840997"
         style="stop-opacity:1;stop-color:#343131" />
      <stop
         id="stop10056"
         offset="0.458128"
         style="stop-opacity:1;stop-color:#8f8d8d" />
      <stop
         id="stop10058"
         offset="0.70637011"
         style="stop-opacity:1;stop-color:#e3e2e2" />
      <stop
         id="stop10060"
         offset="0.817734"
         style="stop-opacity:1;stop-color:#e3e2e2" />
      <stop
         id="stop10062"
         offset="1"
         style="stop-opacity:1;stop-color:#ffffff" />
    </radialGradient>
    <clipPath
       id="clipPath10074"
       clipPathUnits="userSpaceOnUse">
      <path
         id="path10072"
         d="m 3259.67,3468.5 c 95.17,-95.19 95.17,-249.51 0,-344.68 -95.18,-95.17 -249.49,-95.17 -344.67,0 -95.18,95.17 -95.18,249.49 0,344.68 95.18,95.18 249.48,95.18 344.67,0" />
    </clipPath>
    <linearGradient
       id="linearGradient10082"
       spreadMethod="pad"
       gradientTransform="matrix(-344.673,344.673,372.957,372.957,3073.19,2937.34)"
       gradientUnits="userSpaceOnUse"
       y2="0"
       x2="0.79803002"
       y1="0"
       x1="0.078817703">
      <stop
         id="stop10076"
         offset="0"
         style="stop-opacity:1;stop-color:#91dcf8" />
      <stop
         id="stop10078"
         offset="0.2942837"
         style="stop-opacity:1;stop-color:#91dcf8" />
      <stop
         id="stop10080"
         offset="1"
         style="stop-opacity:1;stop-color:#d1f0fc" />
    </linearGradient>
    <clipPath
       id="clipPath10092"
       clipPathUnits="userSpaceOnUse">
      <path
         id="path10090"
         d="m 3109.77,2863.3 211.58,-38.58 c 28.32,73.3 44,152.9 44,236.2 0,362.31 -293.71,656.04 -656.04,656.04 -362.35,0 -656.06,-293.73 -656.06,-656.04 0,-362.33 293.71,-656.08 656.06,-656.08 217.8,0 410.69,106.22 530.03,269.59 l -129.57,188.87" />
    </clipPath>
    <linearGradient
       id="linearGradient10098"
       spreadMethod="pad"
       gradientTransform="matrix(-6e-5,1312.11,1352.1,6e-5,2033.25,2404.84)"
       gradientUnits="userSpaceOnUse"
       y2="0"
       x2="1"
       y1="0"
       x1="0">
      <stop
         id="stop10094"
         offset="0"
         style="stop-opacity:1;stop-color:#fabc09" />
      <stop
         id="stop10096"
         offset="1"
         style="stop-opacity:1;stop-color:#fff200" />
    </linearGradient>
    <clipPath
       id="clipPath10108"
       clipPathUnits="userSpaceOnUse">
      <path
         id="path10106"
         d="m 3109.77,2863.3 76.66,-13.98 c 28.74,64.7 44.82,136.25 44.82,211.6 0,288.25 -233.69,521.94 -521.94,521.94 -288.28,0 -521.99,-233.69 -521.99,-521.94 0,-288.28 233.71,-521.99 521.99,-521.99 190.53,0 357.17,102.16 448.29,254.63 l -47.83,69.74" />
    </clipPath>
    <linearGradient
       id="linearGradient10114"
       spreadMethod="pad"
       gradientTransform="matrix(-5e-5,1043.93,1083.93,5e-5,2167.32,2538.93)"
       gradientUnits="userSpaceOnUse"
       y2="0"
       x2="1"
       y1="0"
       x1="0">
      <stop
         id="stop10110"
         offset="0"
         style="stop-opacity:1;stop-color:#f68712" />
      <stop
         id="stop10112"
         offset="1"
         style="stop-opacity:1;stop-color:#fabc09" />
    </linearGradient>
    <clipPath
       id="clipPath10126"
       clipPathUnits="userSpaceOnUse">
      <path
         id="path10124"
         d="m 2530.6,2719.39 c 92.85,6.91 189.51,36.76 275.75,92.64 43.16,28.24 84.24,64.24 120.37,108.63 33.44,41.63 64.47,92.35 82.63,149.43 l -9.18,4.39 c -18.59,-58.46 -51.96,-109.83 -87.69,-151.33 -36.35,-41.66 -77.28,-75.14 -120.12,-101.17 -85.5,-51.45 -180.58,-77.74 -271.33,-82.12 l 2.22,-82.2 c 3.48,0.56 6.96,1.23 10.44,1.85 l -3.09,59.88" />
    </clipPath>
    <linearGradient
       id="linearGradient10138"
       spreadMethod="pad"
       gradientTransform="matrix(488.315,0,0,-456.816,2521.03,3094.48)"
       gradientUnits="userSpaceOnUse"
       y2="0"
       x2="0.91011202"
       y1="0"
       x1="0.30898899">
      <stop
         id="stop10128"
         offset="0"
         style="stop-opacity:1;stop-color:#523816" />
      <stop
         id="stop10130"
         offset="0.5903825"
         style="stop-opacity:1;stop-color:#8f743c" />
      <stop
         id="stop10132"
         offset="0.606742"
         style="stop-opacity:1;stop-color:#8f743c" />
      <stop
         id="stop10134"
         offset="0.67471111"
         style="stop-opacity:1;stop-color:#8f743c" />
      <stop
         id="stop10136"
         offset="1"
         style="stop-opacity:1;stop-color:#523816" />
    </linearGradient>
    <clipPath
       id="clipPath10150"
       clipPathUnits="userSpaceOnUse">
      <path
         id="path10148"
         d="m 2584.81,2941.45 c -25.75,23.26 -49.73,52.37 -70.17,87.7 -20.03,35.17 -37.83,78.08 -45.58,125.72 l -7.78,-3.66 c 0.13,-1.18 0.33,-2.28 0.47,-3.44 l 0.36,0.18 c 7.76,-47.67 25.57,-90.56 45.6,-125.73 20.43,-35.34 44.42,-64.45 70.16,-87.7 7.11,-6.36 14.38,-12.29 21.76,-17.92 l -3.16,-34.6 c 1.94,-1.82 3.85,-3.73 5.79,-5.47 l 4.31,47.01 c -7.39,5.61 -14.66,11.56 -21.76,17.91" />
    </clipPath>
    <linearGradient
       id="linearGradient10158"
       spreadMethod="pad"
       gradientTransform="matrix(145.293,0,0,-318.34,2461.28,3174.87)"
       gradientUnits="userSpaceOnUse"
       y2="0"
       x2="0.67582399"
       y1="0"
       x1="0.30898899">
      <stop
         id="stop10152"
         offset="0"
         style="stop-opacity:1;stop-color:#523816" />
      <stop
         id="stop10154"
         offset="0.97303714"
         style="stop-opacity:1;stop-color:#8f743c" />
      <stop
         id="stop10156"
         offset="1"
         style="stop-opacity:1;stop-color:#8f743c" />
    </linearGradient>
    <clipPath
       id="clipPath10170"
       clipPathUnits="userSpaceOnUse">
      <path
         id="path10168"
         d="m 2524.21,2683.29 c 37.32,171.3 112.2,332.41 215.22,468.27 l -17.71,11.82 c -106.12,-137.46 -183.1,-301.56 -221.13,-476.15 -38.6,-174.59 -35.01,-291.77 -10.37,-469.02 h 23.08 c -24.12,175.05 -27.39,291.78 10.91,465.08" />
    </clipPath>
    <linearGradient
       id="linearGradient10182"
       spreadMethod="pad"
       gradientTransform="matrix(-4e-5,945.166,317.446,1e-5,2441.99,2218.21)"
       gradientUnits="userSpaceOnUse"
       y2="0"
       x2="0.91011202"
       y1="0"
       x1="0.30898899">
      <stop
         id="stop10172"
         offset="0"
         style="stop-opacity:1;stop-color:#523816" />
      <stop
         id="stop10174"
         offset="0.5903825"
         style="stop-opacity:1;stop-color:#8f743c" />
      <stop
         id="stop10176"
         offset="0.606742"
         style="stop-opacity:1;stop-color:#8f743c" />
      <stop
         id="stop10178"
         offset="0.67471111"
         style="stop-opacity:1;stop-color:#8f743c" />
      <stop
         id="stop10180"
         offset="1"
         style="stop-opacity:1;stop-color:#523816" />
    </linearGradient>
    <clipPath
       id="clipPath10196"
       clipPathUnits="userSpaceOnUse">
      <path
         id="path10194"
         d="m 3163.63,3547.8 c -98.53,37.56 -214.18,16.86 -293.57,-62.53 -107.77,-107.78 -107.77,-282.55 0,-390.33 107.77,-107.77 282.54,-107.77 390.33,0 47.32,47.33 73.83,107.58 79.61,169.38 -36.91,107.8 -97.73,204.47 -176.37,283.48" />
    </clipPath>
    <linearGradient
       id="linearGradient10202"
       spreadMethod="pad"
       gradientTransform="matrix(-2e-5,551.831,617.715,3e-5,2742.29,3014.11)"
       gradientUnits="userSpaceOnUse"
       y2="0"
       x2="1"
       y1="0"
       x1="0">
      <stop
         id="stop10198"
         offset="0"
         style="stop-opacity:1;stop-color:#fabc09" />
      <stop
         id="stop10200"
         offset="1"
         style="stop-opacity:1;stop-color:#fff200" />
    </linearGradient>
    <clipPath
       id="clipPath10212"
       clipPathUnits="userSpaceOnUse">
      <path
         id="path10210"
         d="m 2935.63,3533.81 c -23.56,-12.54 -45.71,-28.68 -65.57,-48.54 -107.77,-107.78 -107.77,-282.55 0,-390.33 97.13,-97.14 248.55,-106.4 356.44,-28.46 -14.29,199.49 -127.47,371.48 -290.87,467.33" />
    </clipPath>
    <linearGradient
       id="linearGradient10218"
       spreadMethod="pad"
       gradientTransform="matrix(-2e-5,519.507,504.219,2e-5,2742.29,3014.3)"
       gradientUnits="userSpaceOnUse"
       y2="0"
       x2="1"
       y1="0"
       x1="0">
      <stop
         id="stop10214"
         offset="0"
         style="stop-opacity:1;stop-color:#f68712" />
      <stop
         id="stop10216"
         offset="1"
         style="stop-opacity:1;stop-color:#fabc09" />
    </linearGradient>
    <clipPath
       id="clipPath10228"
       clipPathUnits="userSpaceOnUse">
      <path
         id="path10226"
         d="m 3351.66,3560.48 c -145.98,145.97 -382.66,145.97 -528.63,0 -145.98,-145.97 -145.98,-382.66 0,-528.63 145.97,-145.99 382.65,-145.99 528.63,0 145.98,145.97 145.98,382.66 0,528.63 z m -91.99,-436.66 c -95.18,-95.17 -249.49,-95.17 -344.67,0 -95.18,95.17 -95.18,249.49 0,344.68 95.18,95.18 249.48,95.18 344.67,0 95.17,-95.19 95.17,-249.51 0,-344.68" />
    </clipPath>
    <linearGradient
       id="linearGradient10240"
       spreadMethod="pad"
       gradientTransform="matrix(-528.631,528.631,556.927,556.927,3073.19,2753.38)"
       gradientUnits="userSpaceOnUse"
       y2="0"
       x2="1"
       y1="0"
       x1="0.049261101">
      <stop
         id="stop10230"
         offset="0"
         style="stop-opacity:1;stop-color:#9c9a9a" />
      <stop
         id="stop10232"
         offset="0.21310201"
         style="stop-opacity:1;stop-color:#9c9a9a" />
      <stop
         id="stop10234"
         offset="0.724138"
         style="stop-opacity:1;stop-color:#dad9d9" />
      <stop
         id="stop10236"
         offset="0.85556888"
         style="stop-opacity:1;stop-color:#dad9d9" />
      <stop
         id="stop10238"
         offset="1"
         style="stop-opacity:1;stop-color:#e4e4e4" />
    </linearGradient>
    <clipPath
       id="clipPath10250"
       clipPathUnits="userSpaceOnUse">
      <path
         id="path10248"
         d="m 3290.21,3499.03 c -112.05,112.06 -293.71,112.06 -405.75,0 -112.04,-112.03 -112.06,-293.7 0,-405.74 112.04,-112.04 293.72,-112.04 405.75,0 112.06,112.04 112.06,293.71 0,405.74 z m -30.54,-375.21 c -95.18,-95.17 -249.49,-95.17 -344.67,0 -95.18,95.17 -95.18,249.49 0,344.68 95.18,95.18 249.48,95.18 344.67,0 95.17,-95.19 95.17,-249.51 0,-344.68" />
    </clipPath>
    <linearGradient
       id="linearGradient10262"
       spreadMethod="pad"
       gradientTransform="matrix(405.751,-405.751,-434.051,-434.051,3101.49,3716.06)"
       gradientUnits="userSpaceOnUse"
       y2="0"
       x2="0.93103403"
       y1="0"
       x1="0.049261101">
      <stop
         id="stop10252"
         offset="0"
         style="stop-opacity:1;stop-color:#918f90" />
      <stop
         id="stop10254"
         offset="0.15801445"
         style="stop-opacity:1;stop-color:#918f90" />
      <stop
         id="stop10256"
         offset="0.536946"
         style="stop-opacity:1;stop-color:#c8c7c7" />
      <stop
         id="stop10258"
         offset="0.75756208"
         style="stop-opacity:1;stop-color:#c8c7c7" />
      <stop
         id="stop10260"
         offset="1"
         style="stop-opacity:1;stop-color:#d3d2d2" />
    </linearGradient>
    <clipPath
       id="clipPath10272"
       clipPathUnits="userSpaceOnUse">
      <path
         id="path10270"
         d="m 3268.28,3477.11 c -99.92,99.95 -261.95,99.91 -361.89,0 -99.93,-99.91 -99.93,-261.97 0,-361.89 99.94,-99.94 261.97,-99.94 361.89,0 99.92,99.92 99.92,261.98 0,361.89 z m -8.61,-353.29 c -95.18,-95.17 -249.49,-95.17 -344.67,0 -95.18,95.17 -95.18,249.49 0,344.68 95.18,95.18 249.48,95.18 344.67,0 95.17,-95.19 95.17,-249.51 0,-344.68" />
    </clipPath>
    <linearGradient
       id="linearGradient10280"
       spreadMethod="pad"
       gradientTransform="matrix(361.895,-361.895,-390.198,-390.198,3101.49,3672.21)"
       gradientUnits="userSpaceOnUse"
       y2="0"
       x2="0.79803002"
       y1="0"
       x1="0.078817703">
      <stop
         id="stop10274"
         offset="0"
         style="stop-opacity:1;stop-color:#c7edfb" />
      <stop
         id="stop10276"
         offset="0.2942837"
         style="stop-opacity:1;stop-color:#c7edfb" />
      <stop
         id="stop10278"
         offset="1"
         style="stop-opacity:1;stop-color:#edf9fe" />
    </linearGradient>
    <clipPath
       id="clipPath10290"
       clipPathUnits="userSpaceOnUse">
      <path
         id="path10288"
         d="m 3122.09,3361.09 c 24.75,48.88 24.87,99.41 -5.49,129.78 -29.74,29.7 -78.63,29.99 -126.46,6.6 50.97,-38.04 95.54,-84.14 131.95,-136.38" />
    </clipPath>
    <linearGradient
       id="linearGradient10296"
       spreadMethod="pad"
       gradientTransform="matrix(-1e-5,153.081,196.826,1e-5,2970.14,3361.08)"
       gradientUnits="userSpaceOnUse"
       y2="0"
       x2="1"
       y1="0"
       x1="0.27957001">
      <stop
         id="stop10292"
         offset="0"
         style="stop-opacity:1;stop-color:#fff200" />
      <stop
         id="stop10294"
         offset="1"
         style="stop-opacity:1;stop-color:#fff87f" />
    </linearGradient>
    <clipPath
       id="clipPath10306"
       clipPathUnits="userSpaceOnUse">
      <path
         id="path10304"
         d="m 3122.09,3361.07 c -36.41,52.26 -80.98,98.36 -131.95,136.41 -20.91,-10.22 -41.6,-24.89 -60.42,-43.7 -61.84,-61.84 -79.79,-144.16 -37.07,-186.88 42.72,-42.72 125.58,-25.11 187.41,36.73 17.91,17.89 31.95,37.54 42.03,57.44" />
    </clipPath>
    <linearGradient
       id="linearGradient10312"
       spreadMethod="pad"
       gradientTransform="matrix(-150.246,150.246,198.777,198.777,2953.85,3177.41)"
       gradientUnits="userSpaceOnUse"
       y2="0"
       x2="0.88172001"
       y1="0"
       x1="0">
      <stop
         id="stop10308"
         offset="0"
         style="stop-opacity:1;stop-color:#f9a70d" />
      <stop
         id="stop10310"
         offset="1"
         style="stop-opacity:1;stop-color:#fcd44b" />
    </linearGradient>
  </defs>
  <style
     id="style2">
        * {fill:#fff;}
    </style>
  <g
     id="layer2"
     style="display:inline;fill:#ffffff"
     transform="matrix(29.149814,0,0,28.782409,38.599408,15.48624)">
    <g
       style="fill:#ffffff"
       id="g10044"
       transform="matrix(0.01144575,0,0,-0.01112406,-20.964043,42.612911)">
      <g
         style="fill:#ffffff"
         clip-path="url(#clipPath10050)"
         id="g10046">
        <path
           id="path10066"
           style="fill:#ffffff;fill-opacity:1;fill-rule:nonzero;stroke:none"
           d="m 3385.08,2224.12 c 0,-18.55 -344.28,-33.58 -768.94,-33.58 -424.65,0 -768.91,15.03 -768.91,33.58 0,18.52 344.26,33.6 768.91,33.6 424.66,0 768.94,-15.08 768.94,-33.6" />
      </g>
    </g>
    <g
       style="fill:#ffffff"
       id="g10068"
       transform="matrix(0.01144575,0,0,-0.01112406,-20.964043,42.612911)">
      <g
         style="fill:#ffffff"
         clip-path="url(#clipPath10074)"
         id="g10070">
        <path
           id="path10084"
           style="fill:#ffffff;fill-opacity:1;fill-rule:nonzero;stroke:none"
           d="m 3259.67,3468.5 c 95.17,-95.19 95.17,-249.51 0,-344.68 -95.18,-95.17 -249.49,-95.17 -344.67,0 -95.18,95.17 -95.18,249.49 0,344.68 95.18,95.18 249.48,95.18 344.67,0" />
      </g>
    </g>
    <g
       style="fill:#ffffff"
       id="g10086"
       transform="matrix(0.01144575,0,0,-0.01112406,-20.964043,42.612911)">
      <g
         style="fill:#ffffff"
         clip-path="url(#clipPath10092)"
         id="g10088">
        <path
           id="path10100"
           style="fill:#ffffff;fill-opacity:1;fill-rule:nonzero;stroke:none"
           d="m 3109.77,2863.3 211.58,-38.58 c 28.32,73.3 44,152.9 44,236.2 0,362.31 -293.71,656.04 -656.04,656.04 -362.35,0 -656.06,-293.73 -656.06,-656.04 0,-362.33 293.71,-656.08 656.06,-656.08 217.8,0 410.69,106.22 530.03,269.59 l -129.57,188.87" />
      </g>
    </g>
    <g
       style="fill:#ffffff"
       id="g10102"
       transform="matrix(0.01144575,0,0,-0.01112406,-20.964043,42.612911)">
      <g
         style="fill:#ffffff"
         clip-path="url(#clipPath10108)"
         id="g10104">
        <path
           id="path10116"
           style="fill:#ffffff;fill-opacity:1;fill-rule:nonzero;stroke:none"
           d="m 3109.77,2863.3 76.66,-13.98 c 28.74,64.7 44.82,136.25 44.82,211.6 0,288.25 -233.69,521.94 -521.94,521.94 -288.28,0 -521.99,-233.69 -521.99,-521.94 0,-288.28 233.71,-521.99 521.99,-521.99 190.53,0 357.17,102.16 448.29,254.63 l -47.83,69.74" />
      </g>
    </g>
    <path
       id="path10118"
       style="fill:#ffffff;fill-opacity:1;fill-rule:nonzero;stroke:none;stroke-width:0.01128376"
       d="m 13.505875,8.4729558 c -0.193661,0.743643 -0.555118,1.3644756 -0.959839,1.9046602 -0.410561,0.536291 -0.880522,0.982031 -1.381276,1.345011 -1.011002,0.718947 -2.097778,1.145333 -3.2483036,1.326322 l -0.025405,-0.9144 c 1.0387026,-0.04872 2.1269646,-0.341176 3.1055766,-0.913507 0.490336,-0.289559 0.958812,-0.661992 1.374865,-1.12542 0.408955,-0.4616491 0.7909,-1.0330919 1.003679,-1.6834049 l 0.130709,0.060742" />
    <g
       style="fill:#ffffff"
       id="g10120"
       transform="matrix(0.01144575,0,0,-0.01112406,-20.964043,42.612911)">
      <g
         style="fill:#ffffff"
         clip-path="url(#clipPath10126)"
         id="g10122">
        <path
           id="path10140"
           style="fill:#ffffff;fill-opacity:1;fill-rule:nonzero;stroke:none"
           d="m 2530.6,2719.39 c 92.85,6.91 189.51,36.76 275.75,92.64 43.16,28.24 84.24,64.24 120.37,108.63 33.44,41.63 64.47,92.35 82.63,149.43 l -9.18,4.39 c -18.59,-58.46 -51.96,-109.83 -87.69,-151.33 -36.35,-41.66 -77.28,-75.14 -120.12,-101.17 -85.5,-51.45 -180.58,-77.74 -271.33,-82.12 l 2.22,-82.2 c 3.48,0.56 6.96,1.23 10.44,1.85 l -3.09,59.88" />
      </g>
    </g>
    <path
       id="path10142"
       style="fill:#ffffff;fill-opacity:1;fill-rule:nonzero;stroke:none;stroke-width:0.01128376"
       d="m 7.2962103,7.5179544 c 0.088705,0.5299493 0.292438,1.0072828 0.5216984,1.3985158 0.2339522,0.3930154 0.5084213,0.716834 0.8031483,0.9755797 0.08127,0.07064 0.164475,0.1368271 0.249058,0.1992331 l -0.04933,0.522943 C 8.703236,10.511439 8.587863,10.400755 8.47501,10.282059 8.1786774,9.9640232 7.908903,9.5820232 7.6841073,9.1312775 7.4633178,8.6774138 7.2765239,8.1622604 7.2071628,7.5586694 l 0.089047,-0.040716" />
    <g
       style="fill:#ffffff"
       id="g10144"
       transform="matrix(0.01144575,0,0,-0.01112406,-20.964043,42.612911)">
      <g
         style="fill:#ffffff"
         clip-path="url(#clipPath10150)"
         id="g10146">
        <path
           id="path10160"
           style="fill:#ffffff;fill-opacity:1;fill-rule:nonzero;stroke:none"
           d="m 2584.81,2941.45 c -25.75,23.26 -49.73,52.37 -70.17,87.7 -20.03,35.17 -37.83,78.08 -45.58,125.72 l -7.78,-3.66 c 0.13,-1.18 0.33,-2.28 0.47,-3.44 l 0.36,0.18 c 7.76,-47.67 25.57,-90.56 45.6,-125.73 20.43,-35.34 44.42,-64.45 70.16,-87.7 7.11,-6.36 14.38,-12.29 21.76,-17.92 l -3.16,-34.6 c 1.94,-1.82 3.85,-3.73 5.79,-5.47 l 4.31,47.01 c -7.39,5.61 -14.66,11.56 -21.76,17.91" />
      </g>
    </g>
    <path
       id="path10162"
       style="fill:#ffffff;fill-opacity:1;fill-rule:nonzero;stroke:none;stroke-width:0.01128376"
       d="M 10.595219,7.6865951 C 8.701519,10.992221 8.854094,14.57072 9.956203,17.937415 H 7.5384016 C 7.2563794,15.965675 7.2152892,14.662158 7.6570935,12.720009 8.0923775,10.777859 8.973471,8.9524016 10.188095,7.4232905 l 0.407124,0.2633046" />
    <g
       style="fill:#ffffff"
       id="g10164"
       transform="matrix(0.01144575,0,0,-0.01112406,-20.964043,42.612911)">
      <g
         style="fill:#ffffff"
         clip-path="url(#clipPath10170)"
         id="g10166">
        <path
           id="path10184"
           style="fill:#ffffff;fill-opacity:1;fill-rule:nonzero;stroke:none"
           d="m 2524.21,2683.29 c 37.32,171.3 112.2,332.41 215.22,468.27 l -17.71,11.82 c -106.12,-137.46 -183.1,-301.56 -221.13,-476.15 -38.6,-174.59 -35.01,-291.77 -10.37,-469.02 h 23.08 c -24.12,175.05 -27.39,291.78 10.91,465.08" />
      </g>
    </g>
    <path
       id="path10186"
       style="fill:#ffffff;fill-opacity:1;fill-rule:nonzero;stroke:none;stroke-width:0.01128376"
       d="M 18.613429,11.6531 12.531497,5.7419975 c -0.450617,-0.4378418 -0.450617,-1.1473349 0,-1.5855111 v 0 c 0.450507,-0.4376215 1.18086,-0.4376215 1.631249,0 v 0 L 20.244905,10.0677 c 0.450276,0.437732 0.450276,1.147669 -2.57e-4,1.5854 v 0 c -0.45039,0.437843 -1.180745,0.437843 -1.631249,0 v 0" />
    <path
       id="path10188"
       style="fill:#ffffff;fill-opacity:1;fill-rule:nonzero;stroke:none;stroke-width:0.01128376"
       d="m 12.589414,4.2131066 c -0.45039,0.4377348 -0.45039,1.1475587 8.6e-5,1.5855146 l 4.131573,4.0153377 C 17.050824,9.6286347 17.361579,9.3991456 17.643487,9.1250467 17.925739,8.8508374 18.161864,8.5489309 18.352095,8.2284479 L 14.22089,4.2131066 c -0.45039,-0.4378418 -1.180741,-0.4378418 -1.631476,0" />
    <g
       style="fill:#ffffff"
       id="g10190"
       transform="matrix(0.01144575,0,0,-0.01112406,-20.964043,42.612911)">
      <g
         style="fill:#ffffff"
         clip-path="url(#clipPath10196)"
         id="g10192">
        <path
           id="path10204"
           style="fill:#ffffff;fill-opacity:1;fill-rule:nonzero;stroke:none"
           d="m 3163.63,3547.8 c -98.53,37.56 -214.18,16.86 -293.57,-62.53 -107.77,-107.78 -107.77,-282.55 0,-390.33 107.77,-107.77 282.54,-107.77 390.33,0 47.32,47.33 73.83,107.58 79.61,169.38 -36.91,107.8 -97.73,204.47 -176.37,283.48" />
      </g>
    </g>
    <g
       style="fill:#ffffff"
       id="g10206"
       transform="matrix(0.01144575,0,0,-0.01112406,-20.964043,42.612911)">
      <g
         style="fill:#ffffff"
         clip-path="url(#clipPath10212)"
         id="g10208">
        <path
           id="path10220"
           style="fill:#ffffff;fill-opacity:1;fill-rule:nonzero;stroke:none"
           d="m 2935.63,3533.81 c -23.56,-12.54 -45.71,-28.68 -65.57,-48.54 -107.77,-107.78 -107.77,-282.55 0,-390.33 97.13,-97.14 248.55,-106.4 356.44,-28.46 -14.29,199.49 -127.47,371.48 -290.87,467.33" />
      </g>
    </g>
    <g
       style="fill:#ffffff"
       id="g10222"
       transform="matrix(0.01144575,0,0,-0.01112406,-20.964043,42.612911)">
      <g
         style="fill:#ffffff"
         clip-path="url(#clipPath10228)"
         id="g10224">
        <path
           id="path10242"
           style="fill:#ffffff;fill-opacity:1;fill-rule:nonzero;stroke:none"
           d="m 3351.66,3560.48 c -145.98,145.97 -382.66,145.97 -528.63,0 -145.98,-145.97 -145.98,-382.66 0,-528.63 145.97,-145.99 382.65,-145.99 528.63,0 145.98,145.97 145.98,382.66 0,528.63 z m -91.99,-436.66 c -95.18,-95.17 -249.49,-95.17 -344.67,0 -95.18,95.17 -95.18,249.49 0,344.68 95.18,95.18 249.48,95.18 344.67,0 95.17,-95.19 95.17,-249.51 0,-344.68" />
      </g>
    </g>
    <g
       style="fill:#ffffff"
       id="g10244"
       transform="matrix(0.01144575,0,0,-0.01112406,-20.964043,42.612911)">
      <g
         style="fill:#ffffff"
         clip-path="url(#clipPath10250)"
         id="g10246">
        <path
           id="path10264"
           style="fill:#ffffff;fill-opacity:1;fill-rule:nonzero;stroke:none"
           d="m 3290.21,3499.03 c -112.05,112.06 -293.71,112.06 -405.75,0 -112.04,-112.03 -112.06,-293.7 0,-405.74 112.04,-112.04 293.72,-112.04 405.75,0 112.06,112.04 112.06,293.71 0,405.74 z m -30.54,-375.21 c -95.18,-95.17 -249.49,-95.17 -344.67,0 -95.18,95.17 -95.18,249.49 0,344.68 95.18,95.18 249.48,95.18 344.67,0 95.17,-95.19 95.17,-249.51 0,-344.68" />
      </g>
    </g>
    <g
       style="fill:#ffffff"
       id="g10266"
       transform="matrix(0.01144575,0,0,-0.01112406,-20.964043,42.612911)">
      <g
         style="fill:#ffffff"
         clip-path="url(#clipPath10272)"
         id="g10268">
        <path
           id="path10282"
           style="fill:#ffffff;fill-opacity:1;fill-rule:nonzero;stroke:none"
           d="m 3268.28,3477.11 c -99.92,99.95 -261.95,99.91 -361.89,0 -99.93,-99.91 -99.93,-261.97 0,-361.89 99.94,-99.94 261.97,-99.94 361.89,0 99.92,99.92 99.92,261.98 0,361.89 z m -8.61,-353.29 c -95.18,-95.17 -249.49,-95.17 -344.67,0 -95.18,95.17 -95.18,249.49 0,344.68 95.18,95.18 249.48,95.18 344.67,0 95.17,-95.19 95.17,-249.51 0,-344.68" />
      </g>
    </g>
    <g
       style="fill:#ffffff"
       id="g10284"
       transform="matrix(0.01144575,0,0,-0.01112406,-20.964043,42.612911)">
      <g
         style="fill:#ffffff"
         clip-path="url(#clipPath10290)"
         id="g10286">
        <path
           id="path10298"
           style="fill:#ffffff;fill-opacity:1;fill-rule:nonzero;stroke:none"
           d="m 3122.09,3361.09 c 24.75,48.88 24.87,99.41 -5.49,129.78 -29.74,29.7 -78.63,29.99 -126.46,6.6 50.97,-38.04 95.54,-84.14 131.95,-136.38" />
      </g>
    </g>
    <g
       style="fill:#ffffff"
       id="g10300"
       transform="matrix(0.01144575,0,0,-0.01112406,-20.964043,42.612911)">
      <g
         style="fill:#ffffff"
         clip-path="url(#clipPath10306)"
         id="g10302">
        <path
           id="path10314"
           style="fill:#ffffff;fill-opacity:1;fill-rule:nonzero;stroke:none"
           d="m 3122.09,3361.07 c -36.41,52.26 -80.98,98.36 -131.95,136.41 -20.91,-10.22 -41.6,-24.89 -60.42,-43.7 -61.84,-61.84 -79.79,-144.16 -37.07,-186.88 42.72,-42.72 125.58,-25.11 187.41,36.73 17.91,17.89 31.95,37.54 42.03,57.44" />
      </g>
    </g>
    <g
       id="g4104"
       style="font-style:normal;font-variant:normal;font-weight:normal;font-stretch:normal;font-size:96px;line-height:1.25;font-family:'Eras Bold ITC';-inkscape-font-specification:'Eras Bold ITC';letter-spacing:0px;word-spacing:0px;display:inline;fill:#ffffff;fill-opacity:1;stroke:none"
       transform="matrix(0.19742382,0,0,0.25638357,-32.809627,-9.45876)"
       aria-label="STaR">
      <path
         id="path4096"
         style="font-style:normal;font-variant:normal;font-weight:normal;font-stretch:normal;font-size:96px;font-family:'Eras Medium ITC';-inkscape-font-specification:'Eras Medium ITC';letter-spacing:-6.33305025px;word-spacing:-3.72594476px;fill:#ffffff"
         d="m 277.45508,104.34906 q -0.1875,-4.453127 -0.60938,-7.734377 4.96875,2.34375 8.90625,3.328125 3.98438,0.937502 7.64063,0.937502 3.51562,0 6.51562,-1.171877 3.04688,-1.21875 4.54688,-3.375 1.54687,-2.203125 1.54687,-5.015625 0,-1.640625 -0.51562,-3.046875 -0.51563,-1.453125 -1.6875,-2.90625 -1.125,-1.5 -3.98438,-3.984375 -2.8125,-2.53125 -8.01562,-6.9375 l -3.46875,-2.953125 q -1.96875,-1.6875 -3.5625,-3.328125 -1.59375,-1.6875 -2.67188,-3.1875 -1.07812,-1.546875 -1.6875,-2.765625 -0.5625,-1.265625 -0.89062,-2.765625 -0.32813,-1.546875 -0.32813,-3.140625 0,-4.03125 2.20313,-7.546875 2.20312,-3.515625 6.60937,-5.625 4.45313,-2.109375 11.71875,-2.109375 5.20313,0 12.79688,1.40625 0.0937,3 0.65625,7.359375 -7.17188,-2.53125 -13.03125,-2.53125 -4.03125,0 -6.75,1.359375 -2.71875,1.3125 -4.125,3.421875 -1.40625,2.0625 -1.40625,4.265625 0,1.3125 0.375,2.578125 0.375,1.21875 1.125,2.34375 1.07812,1.640625 2.67187,3.328125 1.59375,1.640625 4.40625,4.03125 0.70313,0.5625 5.34375,4.40625 4.6875,3.84375 6.79688,5.953125 2.15625,2.109375 3.42187,3.9375 1.26563,1.78125 1.96875,3.890625 0.70313,2.0625 0.70313,4.5 0,3.75 -1.64063,6.9375 -1.59375,3.140627 -4.64062,5.156247 -3,2.01563 -6.70313,2.85938 -3.70312,0.84375 -7.73437,0.84375 -3.23438,0 -6.70313,-0.51563 -3.42187,-0.46875 -9.79687,-2.20312 z" />
      <path
         id="path4098"
         style="font-style:normal;font-variant:normal;font-weight:normal;font-stretch:normal;font-size:96px;font-family:'Eras Medium ITC';-inkscape-font-specification:'Eras Medium ITC';letter-spacing:-6.33305025px;word-spacing:-3.72594476px;fill:#ffffff"
         d="m 332.52828,106.03656 0.9375,-14.343752 1.26562,-29.71875 0.42188,-13.734375 q -11.48438,0.04687 -20.10938,0.421875 0.28125,-3.75 0.32813,-6.609375 11.90625,0.04687 25.6875,0.04687 l 15,-0.04687 h 7.96875 q -0.32813,4.125 -0.32813,6.5625 -7.26562,-0.421875 -16.07812,-0.421875 h -3.84375 l -0.98438,20.765625 -0.98437,29.25 v 7.828127 l -4.5,-0.0937 q -0.60938,0 -4.78125,0.0937 z" />
      <path
         id="path4100"
         style="font-style:normal;font-variant:normal;font-weight:normal;font-stretch:normal;font-size:96px;font-family:'Eras Medium ITC';-inkscape-font-specification:'Eras Medium ITC';letter-spacing:-6.33305025px;word-spacing:-3.72594476px;fill:#ffffff"
         d="m 365.19523,66.099058 q 0.42187,-2.0625 0.89062,-6.09375 5.625,-1.453125 9.75,-1.96875 4.17188,-0.5625 8.10938,-0.5625 4.21875,0 7.875,0.796875 3.70312,0.75 6.14062,2.484375 2.4375,1.734375 3.23438,3.984375 0.79687,2.25 0.79687,4.828125 0,3.234375 -0.51562,10.875 -0.46875,7.59375 -0.75,14.0625 -0.23438,6.468752 -0.23438,11.531252 -2.53125,-0.0937 -4.125,-0.0937 -1.5,0 -4.26562,0.0937 l 0.98437,-12.796877 0.70313,-15.140625 q -1.64063,1.265625 -2.48438,1.78125 -0.79687,0.515625 -1.82812,0.984375 -1.03125,0.421875 -2.29688,0.84375 -1.21875,0.375 -4.82812,1.359375 -3.5625,0.984375 -5.0625,1.5 -3.23438,1.03125 -5.10938,2.0625 -1.875,1.03125 -3.14062,2.25 -1.26563,1.21875 -1.78125,2.4375 -0.60938,1.5 -0.60938,3.140625 0,2.53125 1.5,4.40625 1.5,1.874997 3.75,2.624997 2.29688,0.70313 5.48438,0.70313 1.96875,0 4.125,-0.28125 2.15625,-0.28125 5.76562,-1.45313 -0.65625,1.82813 -1.5,5.625 -3.42187,0.65625 -5.57812,0.79688 -2.15625,0.1875 -4.07813,0.1875 -6.42187,0 -10.03125,-1.5 -3.60937,-1.5 -5.39062,-4.54688 -1.78125,-3.093747 -1.78125,-6.703122 0,-2.109375 0.60937,-3.890625 0.65625,-1.78125 1.73438,-3.234375 1.07812,-1.453125 3.04687,-2.90625 2.01563,-1.453125 4.17188,-2.390625 2.20312,-0.9375 5.10937,-1.828125 2.90625,-0.9375 9.32813,-2.484375 2.0625,-0.46875 3.51562,-0.9375 1.45313,-0.515625 2.57813,-0.984375 1.125,-0.46875 1.96875,-1.078125 0.84375,-0.65625 1.54687,-1.546875 0.70313,-0.9375 1.03125,-1.875 0.32813,-0.9375 0.32813,-1.875 0,-2.296875 -1.5,-3.9375 -1.5,-1.640625 -3.9375,-2.296875 -2.39063,-0.65625 -5.67188,-0.65625 -3.04687,0 -6.28125,0.515625 -3.1875,0.46875 -5.53125,1.171875 -2.29687,0.65625 -5.76562,2.015625 z" />
      <path
         id="path4102"
         style="font-style:normal;font-variant:normal;font-weight:normal;font-stretch:normal;font-size:96px;font-family:'Eras Medium ITC';-inkscape-font-specification:'Eras Medium ITC';letter-spacing:-6.33305025px;word-spacing:-3.72594476px;fill:#ffffff"
         d="m 407.79967,106.03656 0.9375,-12.609377 1.07813,-23.296875 0.46875,-19.59375 q 0.0937,-5.953125 0.0937,-8.484375 5.625,0.09375 9.32812,0.09375 3.1875,0 7.03125,-0.09375 3.89063,-0.09375 6.375,-0.09375 4.35938,0 7.92188,0.609375 3.60937,0.609375 6.42187,2.8125 2.85938,2.15625 4.17188,5.0625 1.35937,2.859375 1.35937,6.515625 0,3.515625 -1.07812,6.515625 -1.03125,3 -3.09375,5.4375 -2.01563,2.4375 -4.82813,3.984375 -2.15625,1.171875 -5.39062,1.921875 -2.15625,0.46875 -5.90625,0.890625 l 8.25,13.171875 8.53125,13.078122 q 0.89062,1.35938 2.57812,4.07813 -3.65625,-0.0937 -4.875,-0.0937 -1.3125,0 -5.01562,0.0937 l -3.375,-6.421877 q -1.03125,-1.875 -2.0625,-3.703125 -1.03125,-1.828125 -2.25,-3.9375 L 423.8778,74.677183 q -0.65625,-1.03125 -2.15625,-3.609375 3.60937,0.65625 6.375,0.65625 4.6875,0 8.48437,-1.546875 3.84375,-1.546875 5.90625,-4.78125 2.10938,-3.28125 2.10938,-7.265625 0,-2.15625 -0.65625,-3.984375 -0.65625,-1.875 -2.10938,-3.140625 -1.40625,-1.265625 -2.8125,-1.828125 -1.35937,-0.5625 -3.5625,-0.84375 -2.15625,-0.28125 -4.59375,-0.28125 l -6.65625,0.09375 q -4.3125,0 -5.48437,-0.04687 -1.45313,31.5 -1.78125,57.937497 l -4.59375,-0.0937 q -1.03125,0 -4.54688,0.0937 z" />
    </g>
  </g>
</svg>
